<svg width="110" height="110" viewBox="0 0 110 110" fill="none" xmlns="http://www.w3.org/2000/svg">
<path d="M40.0259 53.1945H26.6865C26.6048 52.9049 26.579 43.8073 26.6536 43.261H52.7573C52.7688 43.337 52.7903 43.4187 52.7889 43.499C52.7645 45.1611 52.8176 46.8289 52.6957 48.4837C52.2253 54.8881 49.9939 60.5612 45.4868 65.2275C42.8151 67.9924 39.6172 69.9513 35.9777 71.1817C32.5661 72.3361 29.057 72.7276 25.4676 72.5282C22.3443 72.3547 19.3228 71.7295 16.4059 70.598C8.49723 67.5292 2.6607 60.8078 0.726188 52.5378C0.0837393 49.7901 -0.134234 47.0081 0.0794372 44.1988C0.403529 39.924 1.62676 35.9273 3.89111 32.2734C6.36482 28.281 9.71329 25.2308 13.8849 23.0827C16.3242 21.8264 18.904 20.9875 21.6015 20.4985C24.1899 20.0282 26.7955 19.902 29.4155 20.0769C32.5718 20.2877 35.6278 20.9459 38.5374 22.2136C42.1354 23.781 45.1655 26.0927 47.6005 29.1759C47.9088 29.5674 48.2014 29.9703 48.5255 30.3977C45.7162 32.7868 42.937 35.1529 40.1249 37.5449C40.0317 37.4374 39.9442 37.3427 39.8625 37.2423C38.8056 35.9503 37.6411 34.77 36.3032 33.7662C34.2726 32.2433 32.0212 31.2093 29.4987 30.8709C25.145 30.2873 21.1311 31.1764 17.5933 33.8508C14.9059 35.8829 13.1722 38.5846 12.286 41.8212C11.3796 45.131 11.3796 48.4551 12.4566 51.7204C14.1201 56.7696 17.5646 59.9976 22.6827 61.4187C24.5857 61.9465 26.5331 62.0526 28.4977 61.8862C30.2143 61.7414 31.8735 61.3643 33.4452 60.6401C35.8443 59.5359 37.6741 57.8136 38.9734 55.5234C39.3835 54.8007 39.7377 54.0521 40.0274 53.1931L40.0259 53.1945Z" fill="white"/>
<path d="M83.3064 72.5957C79.826 72.5713 76.4517 71.9833 73.2065 70.7171C67.8733 68.6363 63.6185 65.2132 60.5195 60.392C58.6682 57.5125 57.4665 54.3691 56.8814 50.9905C56.5042 48.8122 56.3752 46.6195 56.543 44.4169C57.0334 37.9938 59.467 32.4326 64.0186 27.8466C67.8102 24.0277 72.3876 21.6501 77.6477 20.566C80.2017 20.0397 82.7815 19.8877 85.3771 20.0798C90.1969 20.4383 94.6654 21.8738 98.6864 24.5899C103.098 27.5698 106.271 31.555 108.214 36.5139C109.093 38.7567 109.628 41.0813 109.859 43.479C110.296 48.0005 109.726 52.3801 107.993 56.5875C106.311 60.6717 103.727 64.089 100.265 66.8337C97.74 68.8356 94.9278 70.2998 91.8561 71.272C89.6204 71.979 87.3332 72.3949 84.9928 72.5197C84.4321 72.5498 83.87 72.5713 83.3093 72.5971L83.3064 72.5957ZM68.1214 45.9212C68.1328 48.3805 68.4612 50.4097 69.2285 52.3528C70.6811 56.034 73.1534 58.7974 76.7342 60.5096C79.7772 61.9652 82.9794 62.3007 86.2777 61.6511C89.619 60.9929 92.4125 59.3581 94.6181 56.7625C96.8867 54.0937 98.0554 50.9675 98.3078 47.4929C98.4412 45.6415 98.3007 43.8031 97.8102 42.0062C96.5927 37.545 93.9842 34.1879 89.8226 32.1214C86.9331 30.6874 83.8599 30.3102 80.6864 30.8423C77.1802 31.4288 74.2476 33.0765 71.9302 35.771C69.3346 38.7897 68.1759 42.3461 68.1214 45.9212Z" fill="white"/>
<path d="M98.9969 87.2774C99.0184 89.0154 97.5456 90.6674 95.5624 90.6402C93.7512 90.6158 92.2383 89.1029 92.2383 87.2774C92.2383 85.3844 93.7512 83.8715 95.6384 83.8787C97.5069 83.8859 98.9969 85.393 98.9969 87.2774Z" fill="white"/>
<path d="M16.2028 87.6043C15.6822 87.6043 15.209 87.6043 14.7343 87.6043C14.6253 87.6043 14.512 87.6086 14.4059 87.5871C14.2166 87.5498 14.0947 87.4035 14.0876 87.2329C14.0804 87.0522 14.2123 86.8844 14.4059 86.8385C14.4762 86.8228 14.5508 86.8228 14.6239 86.8228C15.2219 86.8228 15.8213 86.8185 16.4193 86.8228C16.8409 86.8256 16.9642 86.9475 16.97 87.372C16.9757 87.9829 16.9671 88.5938 16.9743 89.2047C16.9771 89.4284 16.9069 89.6005 16.7348 89.7496C15.7238 90.6244 14.5665 90.8797 13.3189 90.4423C12.0441 89.9963 11.2596 89.067 11.0517 87.7147C10.8309 86.2764 11.5393 84.9212 12.8141 84.2673C14.1091 83.6034 15.7052 83.807 16.742 84.7692C16.7592 84.7864 16.7793 84.8008 16.7965 84.8194C16.9929 85.0187 17.0159 85.2324 16.8581 85.4002C16.7119 85.5551 16.5068 85.5536 16.3003 85.3945C16.1454 85.2754 16.0006 85.1421 15.8357 85.0374C14.4963 84.1798 12.675 84.7076 12.0082 86.143C11.2941 87.6789 12.2792 89.5417 13.9499 89.8328C14.6741 89.959 15.328 89.807 15.9418 89.4184C16.1225 89.3036 16.2171 89.1731 16.2071 88.9437C16.1884 88.5178 16.2013 88.0905 16.2013 87.6057L16.2028 87.6043Z" fill="white"/>
<path d="M83.949 87.6043C83.427 87.6043 82.9523 87.6043 82.4776 87.6043C82.3672 87.6043 82.2554 87.6101 82.1492 87.5886C81.9585 87.5513 81.8395 87.4093 81.8323 87.2358C81.8251 87.0494 81.9499 86.8844 82.1449 86.8386C82.2152 86.8213 82.2898 86.8228 82.3629 86.8228C82.9623 86.8228 83.5603 86.8185 84.1598 86.8228C84.5857 86.8256 84.699 86.9418 84.7018 87.372C84.7061 87.9958 84.6989 88.6182 84.7047 89.242C84.7061 89.4385 84.6488 89.5876 84.5011 89.7267C83.2678 90.8926 81.2989 90.9442 79.9752 89.8371C78.6588 88.7343 78.3548 86.8543 79.2654 85.4346C80.3882 83.6822 82.9093 83.3481 84.4537 84.7463C84.4896 84.7793 84.5283 84.8094 84.5613 84.8452C84.7319 85.0288 84.7434 85.2453 84.5928 85.4002C84.4509 85.5465 84.253 85.5551 84.0651 85.4131C83.9188 85.3027 83.7855 85.1751 83.6335 85.0733C82.1779 84.0895 80.1387 84.7922 79.6239 86.4514C79.2912 87.5255 79.6985 88.7171 80.6234 89.3725C81.5799 90.0494 82.8247 90.0479 83.7439 89.3725C83.8844 89.2692 83.9547 89.1588 83.949 88.9781C83.9375 88.5393 83.9446 88.1019 83.9446 87.6029L83.949 87.6043Z" fill="white"/>
<path d="M70.4638 88.7888V88.4332C70.4638 87.1253 70.4638 85.8175 70.4638 84.5097C70.4638 84.4122 70.458 84.3132 70.4709 84.2171C70.501 84.0121 70.6531 83.8801 70.8409 83.8816C71.0345 83.8816 71.1765 84.0092 71.2052 84.22C71.2181 84.3161 71.2152 84.415 71.2152 84.5125C71.2152 86.3452 71.2152 88.1794 71.2152 90.0121C71.2152 90.1096 71.2152 90.2071 71.2052 90.3046C71.1908 90.4695 71.0962 90.5771 70.9399 90.6172C70.7879 90.6559 70.6459 90.6215 70.5455 90.491C70.4795 90.4036 70.4222 90.3089 70.3648 90.2157C69.4843 88.8218 68.6038 87.4265 67.7233 86.0326C67.6531 85.9222 67.5785 85.8146 67.4379 85.7128C67.4336 85.8376 67.425 85.9623 67.425 86.0871C67.425 87.382 67.425 88.6784 67.4236 89.9733C67.4236 90.0952 67.4236 90.2186 67.4021 90.3376C67.3705 90.514 67.2573 90.6144 67.0751 90.6287C66.8916 90.643 66.7381 90.5441 66.6879 90.362C66.6621 90.2702 66.6621 90.1684 66.6621 90.0723C66.6621 88.1908 66.6621 86.3079 66.6621 84.4265C66.6621 84.3419 66.6607 84.253 66.6822 84.1727C66.7639 83.8758 67.0938 83.7812 67.3161 83.9977C67.4021 84.0809 67.4638 84.1913 67.5283 84.2946C68.4088 85.6884 69.2878 87.0852 70.1669 88.4791C70.2372 88.5909 70.3103 88.7028 70.382 88.8146C70.4093 88.806 70.4379 88.7989 70.4652 88.7903L70.4638 88.7888Z" fill="white"/>
<path d="M34.1426 90.2113C34.1598 90.1611 34.1856 90.0679 34.2229 89.979C35.0432 88.0459 35.8663 86.1128 36.6894 84.1798C36.7224 84.1023 36.7583 84.0206 36.8113 83.956C36.9719 83.7624 37.2215 83.761 37.3778 83.9589C37.4452 84.0435 37.4868 84.1482 37.5298 84.2486C38.3314 86.1243 39.133 88 39.9332 89.8757C39.9719 89.9647 40.0135 90.0564 40.035 90.1496C40.0838 90.3604 39.9977 90.534 39.8228 90.6042C39.6335 90.6802 39.4256 90.61 39.3324 90.4063C39.1631 90.0407 39.0169 89.6649 38.8548 89.2964C38.5996 88.7213 38.7544 88.8189 38.1206 88.8131C37.3505 88.8074 36.5804 88.8189 35.8104 88.806C35.6039 88.8031 35.502 88.8762 35.4289 89.0598C35.2583 89.4914 35.0704 89.9159 34.8897 90.3432C34.818 90.5125 34.7133 90.6358 34.5097 90.63C34.2903 90.6243 34.1426 90.4752 34.144 90.2099L34.1426 90.2113ZM38.2755 88.0359C38.1306 87.4737 37.2372 85.4517 37.0709 85.2897C36.6622 86.0469 35.9566 87.7821 35.9538 88.0359H38.274H38.2755Z" fill="white"/>
<path d="M47.7154 89.8844H48.1256C48.8956 89.8844 49.6643 89.8844 50.4344 89.8844C50.5434 89.8844 50.6566 89.8801 50.7628 89.9044C50.942 89.946 51.0467 90.1081 51.0324 90.2902C51.0166 90.4695 50.9176 90.5856 50.7427 90.62C50.648 90.6387 50.5477 90.6344 50.4501 90.6344C49.3746 90.6344 48.3005 90.6344 47.225 90.6344C47.1633 90.6344 47.1031 90.6372 47.0414 90.6315C46.693 90.6014 46.5567 90.3576 46.7116 90.0392C46.7589 89.9403 46.822 89.8485 46.8794 89.7553C47.8345 88.1779 48.791 86.6004 49.746 85.023C49.8134 84.9126 49.8765 84.7993 49.9712 84.6372C49.8177 84.6301 49.7259 84.6215 49.6342 84.6215C48.8153 84.6215 47.9965 84.6215 47.1791 84.62C46.8249 84.62 46.6499 84.4981 46.6428 84.2601C46.6356 84.0134 46.8263 83.8772 47.1949 83.8758C48.2948 83.8743 49.3933 83.8758 50.4932 83.8758C50.5663 83.8758 50.6409 83.8715 50.7126 83.8858C50.9721 83.936 51.0983 84.164 51.0008 84.4121C50.9607 84.5125 50.8947 84.6043 50.8373 84.6975C49.8694 86.2964 48.9014 87.8939 47.9334 89.4929C47.866 89.6033 47.8072 89.7195 47.7169 89.8844H47.7154Z" fill="white"/>
<path d="M25.438 89.8901C25.6159 89.8901 25.7464 89.8901 25.8783 89.8901C26.3544 89.8901 26.8305 89.8844 27.3066 89.8944C27.5776 89.9001 27.7196 90.0349 27.7253 90.2558C27.7311 90.4809 27.5934 90.6286 27.3281 90.6315C26.5838 90.6401 25.8381 90.6415 25.0939 90.6315C24.8114 90.6272 24.711 90.5053 24.6938 90.217C24.6895 90.1439 24.6923 90.0708 24.6923 89.9976C24.6923 88.1649 24.6923 86.3337 24.6923 84.501C24.6923 84.3906 24.6866 84.2787 24.7038 84.1726C24.7339 83.9948 24.8888 83.8772 25.0709 83.8843C25.2473 83.8915 25.3792 83.9776 25.4194 84.1525C25.4452 84.2701 25.438 84.3949 25.438 84.5168C25.438 86.153 25.438 87.7907 25.438 89.4269C25.438 89.5603 25.438 89.6936 25.438 89.8915V89.8901Z" fill="white"/>
<path d="M58.1943 87.2501C58.1943 86.3467 58.1943 85.4418 58.1943 84.5383C58.1943 84.4523 58.1914 84.3663 58.1971 84.2817C58.2158 84.0264 58.3592 83.8773 58.5772 83.8816C58.7908 83.8859 58.9299 84.0393 58.9471 84.2974C58.9514 84.3706 58.9486 84.4437 58.9486 84.5168C58.9486 86.3495 58.9486 88.1822 58.9486 90.0149C58.9486 90.1239 58.9543 90.2372 58.9328 90.3433C58.897 90.5269 58.7449 90.6344 58.5614 90.6301C58.3721 90.6258 58.2359 90.5168 58.2058 90.3276C58.1885 90.22 58.1943 90.1081 58.1943 89.9992C58.1943 89.0828 58.1943 88.1665 58.1943 87.2501Z" fill="white"/>
</svg>
