<svg width="110" height="110" viewBox="0 0 110 110" fill="none" xmlns="http://www.w3.org/2000/svg">
<path d="M0 50.6064C0.0572858 50.5552 0.0345095 50.4806 0.0496937 50.4177C0.262272 49.532 0.992494 48.9593 1.93253 48.9593C3.22181 48.9593 4.51109 48.9593 5.7976 48.9593C6.97092 48.9593 8.14425 48.9558 9.31757 48.9593C10.2645 48.9628 11.0003 49.5438 11.2004 50.4399C11.2382 50.6195 11.2558 50.8028 11.2529 50.9863C11.2529 53.071 11.2529 55.1553 11.2529 57.2395C11.2529 57.3728 11.2266 57.4136 11.0851 57.4122C10.3641 57.4039 9.64311 57.4039 8.92209 57.4122C8.78405 57.4122 8.75369 57.3742 8.75438 57.2409C8.75852 55.2726 8.75438 53.3029 8.76128 51.3359C8.76128 51.1826 8.72401 51.148 8.57286 51.1487C6.59891 51.1542 4.62543 51.1542 2.6524 51.1487C2.50056 51.1487 2.46191 51.1867 2.46191 51.3394C2.46605 59.0312 2.46605 66.7207 2.46191 74.4079C2.46191 74.5688 2.49849 74.6096 2.66137 74.6089C4.63486 74.6029 6.60834 74.6029 8.58183 74.6089C8.72401 74.6089 8.76128 74.5751 8.76059 74.4314C8.75645 71.3454 8.75645 68.2595 8.76059 65.1736C8.76059 65.0167 8.71849 64.9863 8.5701 64.9877C7.70253 64.9953 6.83496 64.9877 5.96739 64.996C5.80864 64.996 5.78104 64.9504 5.78311 64.8039C5.79208 64.2049 5.79001 63.606 5.78311 63.0077C5.78311 62.8937 5.80519 62.8536 5.93012 62.8543C7.65283 62.8584 9.37578 62.8584 11.099 62.8543C11.2177 62.8543 11.2508 62.884 11.2501 63.0049C11.2501 66.9494 11.2501 70.8961 11.2501 74.8452C11.2501 76.0072 10.4398 76.7955 9.27961 76.7962C6.84094 76.7962 4.40226 76.7962 1.96359 76.7962C0.934518 76.7962 0.223622 76.2055 0.0227763 75.1899C0.0178752 75.1733 0.0101722 75.1577 0 75.1436L0 50.6064Z" fill="white"/>
<path d="M58.0042 33C58.2216 33.0643 58.4493 33.056 58.6716 33.0691C59.8532 33.1377 61.029 33.2835 62.1916 33.5057C63.5467 33.7529 64.8841 34.0899 66.1947 34.5144C67.7681 35.0232 69.3054 35.6376 70.7962 36.3535C73.5059 37.6496 76.0347 39.2366 78.4235 41.0515C78.7202 41.2767 79.0267 41.4895 79.3207 41.7196C79.9881 42.2454 80.2311 42.9404 80.0288 43.7542C79.837 44.5266 79.32 45.0137 78.5284 45.1581C77.9486 45.2638 77.4344 45.0925 76.9823 44.7097C76.1203 43.9795 75.2845 43.2181 74.3955 42.5196C73.0494 41.4542 71.6387 40.4731 70.1715 39.582C68.6839 38.6777 67.1273 37.8923 65.5162 37.233C64.0761 36.6453 62.5934 36.1679 61.081 35.805C59.8706 35.5178 58.643 35.3085 57.4058 35.1783C56.0198 35.0361 54.6253 34.9973 53.2336 35.0623C49.6239 35.2239 46.1502 36.0399 42.7972 37.3726C39.7842 38.5782 36.9276 40.1433 34.2892 42.0339C33.0815 42.887 31.9244 43.8098 30.8238 44.7975C30.7955 44.8197 30.7657 44.84 30.7347 44.8583L30.7168 44.841C30.9977 44.4956 31.3276 44.1936 31.6479 43.8848C32.914 42.6638 34.2566 41.5247 35.6675 40.4746C39.133 37.8907 42.8904 35.8589 47.0108 34.5199C48.4902 34.0417 50.0025 33.6722 51.5357 33.4145C52.5694 33.2311 53.6137 33.1132 54.6623 33.0615C54.8693 33.0532 55.0881 33.0705 55.2931 33H58.0042Z" fill="white"/>
<path d="M87.4558 56.4133V56.6281C87.4558 63.267 87.4558 69.9059 87.4558 76.5448C87.4558 76.8336 87.4917 76.7928 87.1997 76.7935C86.5703 76.7935 85.9408 76.7894 85.3114 76.7984C85.1616 76.7984 85.1319 76.7507 85.1326 76.6118C85.1374 75.4139 85.1326 74.2159 85.1326 73.0193C85.1326 65.0838 85.1326 57.1488 85.1326 49.2143C85.1326 48.9145 85.0926 48.9587 85.3976 48.9566C85.8683 48.9566 86.339 48.9621 86.8091 48.9525C86.9471 48.9525 86.9989 49.0001 87.043 49.121C88.1782 52.2664 89.3158 55.411 90.456 58.555C91.6984 61.9859 92.9421 65.4173 94.1872 68.8491C94.2019 68.8989 94.2287 68.9442 94.2652 68.9811V68.7773C94.2652 62.2484 94.2652 55.7196 94.2652 49.1908C94.2652 48.9241 94.2321 48.9594 94.4999 48.9587C95.1348 48.9587 95.7705 48.9649 96.4062 48.9538C96.5739 48.9538 96.6132 49.0036 96.6049 49.1611C96.5925 49.4375 96.6049 49.7138 96.6049 49.986C96.6049 58.8376 96.6049 67.6894 96.6049 76.5414C96.6049 76.8378 96.6381 76.7963 96.3558 76.7977C95.9223 76.7977 95.4882 76.7935 95.0548 76.8018C95.0049 76.8099 94.9538 76.7983 94.9124 76.7695C94.8709 76.7406 94.8423 76.6967 94.8325 76.6471C93.8782 74.0065 92.9214 71.3674 91.962 68.7296C90.4896 64.6686 89.0156 60.6074 87.54 56.5459C87.5234 56.501 87.5034 56.4568 87.4855 56.4126L87.4558 56.4133Z" fill="white"/>
<path d="M35.1761 62.8861C35.1761 58.3129 35.1745 53.7402 35.1713 49.168C35.1713 48.9856 35.2217 48.9524 35.3929 48.9531C37.4462 48.9594 39.4995 48.9531 41.5528 48.958C42.626 48.958 43.6365 49.197 44.5289 49.8174C45.7519 50.6672 46.4449 51.8353 46.6078 53.3216C46.6327 53.5709 46.6442 53.8213 46.6423 54.0719C46.6423 59.9407 46.6423 65.8095 46.6423 71.6783C46.6423 72.7477 46.4352 73.7564 45.814 74.6435C44.9306 75.9092 43.7083 76.6091 42.1726 76.7652C41.9103 76.7915 41.6487 76.797 41.3858 76.797C39.3879 76.797 37.3898 76.7981 35.3915 76.8004C35.2203 76.8004 35.1699 76.7687 35.1699 76.5863C35.1773 72.0195 35.1794 67.4528 35.1761 62.8861ZM37.6525 62.8688C37.6525 66.7189 37.6525 70.5694 37.6525 74.4204C37.6525 74.5758 37.6919 74.609 37.8423 74.6076C38.6975 74.6 39.5526 74.6076 40.4085 74.6027C40.8046 74.6027 41.2015 74.6124 41.5977 74.5613C42.7889 74.4072 43.749 73.5989 44.0561 72.4748C44.1473 72.1069 44.1886 71.7284 44.179 71.3494V54.3696C44.179 54.2777 44.179 54.1859 44.179 54.0933C44.15 53.2815 43.9029 52.5595 43.3073 51.9833C42.6861 51.3802 41.9221 51.146 41.0704 51.1488C40.0013 51.1522 38.9308 51.1536 37.863 51.1488C37.6981 51.1488 37.656 51.1874 37.656 51.356C37.656 55.1932 37.6548 59.0308 37.6525 62.8688Z" fill="white"/>
<path d="M50.9789 62.8771C50.9789 58.3113 50.9773 53.7451 50.974 49.1784C50.974 48.9905 51.0217 48.9525 51.2032 48.9525C54.0753 48.9589 56.9472 48.9589 59.8188 48.9525C59.9769 48.9525 60.0259 48.9842 60.0197 49.15C60.0086 49.7553 60.01 50.3605 60.0197 50.9657C60.0197 51.1211 59.9755 51.1543 59.8264 51.1536C57.7676 51.1488 55.7081 51.1536 53.6492 51.146C53.487 51.146 53.4525 51.1854 53.4525 51.345C53.458 54.6764 53.458 58.0078 53.4525 61.3392C53.4525 61.4975 53.4863 61.5389 53.6492 61.5382C55.5127 61.5313 57.3762 61.5382 59.2398 61.5306C59.3868 61.5306 59.4358 61.5576 59.433 61.7165C59.4224 62.3217 59.4224 62.9269 59.433 63.5321C59.433 63.709 59.4026 63.7663 59.2087 63.7656C57.3631 63.7566 55.5176 63.7656 53.6727 63.7559C53.5043 63.7559 53.4504 63.7836 53.4511 63.968C53.4571 67.4459 53.4571 70.9234 53.4511 74.4003C53.4511 74.5717 53.4994 74.6076 53.6582 74.6076C55.7419 74.6021 57.8249 74.6076 59.9086 74.5993C60.0915 74.5993 60.128 74.6504 60.1246 74.8225C60.1135 75.4214 60.1156 76.0204 60.1246 76.6187C60.1246 76.7624 60.0894 76.7998 59.9451 76.7991C57.0242 76.7949 54.1036 76.7949 51.1832 76.7991C51.0196 76.7991 50.9727 76.7638 50.9727 76.5918C50.9782 72.2577 50.9796 67.9238 50.9768 63.5901L50.9789 62.8771Z" fill="white"/>
<path d="M100.863 62.8764V49.197C100.863 48.9586 100.863 48.9579 101.093 48.9579C103.953 48.9579 106.813 48.9566 109.672 48.9538C109.848 48.9538 109.898 48.9939 109.894 49.1735C109.881 49.7663 109.881 50.359 109.894 50.9518C109.894 51.1328 109.831 51.1591 109.675 51.1591C107.634 51.1549 105.593 51.1591 103.552 51.1515C103.365 51.1515 103.322 51.1992 103.323 51.3836C103.329 54.6966 103.329 58.0099 103.323 61.3233C103.323 61.5009 103.367 61.5444 103.544 61.5437C105.395 61.5368 107.247 61.5437 109.098 61.5354C109.272 61.5354 109.305 61.5872 109.305 61.7496C109.296 62.3603 109.296 62.9715 109.305 63.5832C109.305 63.7414 109.256 63.7732 109.108 63.7725C107.25 63.7683 105.393 63.7725 103.536 63.7663C103.369 63.7663 103.322 63.807 103.323 63.9777C103.328 67.45 103.328 70.9222 103.323 74.3941C103.323 74.5806 103.382 74.6096 103.55 74.6096C105.627 74.6041 107.705 74.6096 109.782 74.6013C109.963 74.6013 110.004 74.6504 110.001 74.8245C109.99 75.4297 109.993 76.0349 110.001 76.6401C110.001 76.7693 109.966 76.8032 109.837 76.8032C106.904 76.7995 103.972 76.7995 101.039 76.8032C100.863 76.8032 100.861 76.7286 100.861 76.5959C100.864 72.0223 100.864 67.4491 100.863 62.8764Z" fill="white"/>
<path d="M15.8752 62.8764C15.8752 58.3033 15.8739 53.7306 15.8711 49.1583C15.8711 48.9877 15.9173 48.951 16.0782 48.951C16.7683 48.96 17.4585 48.9614 18.1487 48.951C18.3171 48.951 18.3434 48.9987 18.3434 49.1528C18.3392 57.5355 18.3381 65.9165 18.3399 74.296C18.3434 74.3387 18.3434 74.3817 18.3399 74.4245C18.3171 74.5689 18.3737 74.6062 18.5187 74.6055C20.5285 74.6007 22.539 74.6055 24.5495 74.5986C24.7111 74.5986 24.7656 74.6304 24.7621 74.8059C24.7504 75.4173 24.7538 76.0287 24.7621 76.6395C24.7621 76.7686 24.7304 76.7997 24.6027 76.7997C21.7499 76.7956 18.8971 76.7956 16.0443 76.7997C15.8821 76.7997 15.8759 76.7362 15.8766 76.6111C15.8757 72.0338 15.8752 67.4556 15.8752 62.8764Z" fill="white"/>
<path d="M64.7073 62.8647C64.7073 58.3049 64.7059 53.7451 64.7031 49.1853C64.7031 49.007 64.7363 48.9469 64.9302 48.9511C65.608 48.9649 66.2864 48.9614 66.9642 48.9511C67.1298 48.9511 67.1768 48.9904 67.1761 49.1583C67.1715 53.0945 67.1715 57.0307 67.1761 60.9668C67.1761 65.4345 67.1745 69.9022 67.1712 74.3699C67.1712 74.5544 67.2154 74.6014 67.4011 74.6007C69.4026 74.5938 71.3973 74.6007 73.3947 74.5924C73.559 74.5924 73.6017 74.6359 73.5962 74.7962C73.5866 75.4069 73.5886 76.0184 73.5962 76.6298C73.5962 76.7576 73.5624 76.7942 73.4333 76.7935C70.5806 76.7898 67.7278 76.7898 64.875 76.7935C64.7004 76.7935 64.7128 76.7086 64.7128 76.5918C64.7128 72.5944 64.7128 68.5972 64.7128 64.6002L64.7073 62.8647Z" fill="white"/>
<path d="M28.7907 62.8571C28.7907 58.2973 28.7888 53.7375 28.7852 49.1777C28.7852 48.987 28.8376 48.9504 29.0164 48.9531C29.7128 48.9642 30.4092 48.9621 31.1056 48.9531C31.2436 48.9531 31.2747 48.9905 31.2747 49.1259C31.271 58.2948 31.271 67.4637 31.2747 76.6326C31.2747 76.7749 31.234 76.8011 31.1014 76.7998C30.3928 76.7928 29.6842 76.7928 28.9756 76.7998C28.8231 76.7998 28.7858 76.7624 28.7858 76.6098C28.7909 72.026 28.7925 67.4418 28.7907 62.8571Z" fill="white"/>
<path d="M80.4882 62.8957V76.5572C80.4882 76.7962 80.4882 76.7962 80.257 76.7962C79.5668 76.7962 78.8766 76.7962 78.1864 76.7962C78.0636 76.7962 78.0008 76.7707 78.0215 76.6366C78.0242 76.6001 78.0242 76.5634 78.0215 76.5268V49.2239C78.0215 48.9565 78.0215 48.9565 78.2976 48.9565H80.1997C80.4855 48.9565 80.4855 48.9565 80.4855 49.2329L80.4882 62.8957Z" fill="white"/>
<path d="M30.7354 44.8577L30.6992 44.8751C30.7055 44.8633 30.7117 44.8521 30.7173 44.8403L30.7354 44.8577Z" fill="white"/>
</svg>
