<svg width="110" height="110" viewBox="0 0 110 110" fill="none" xmlns="http://www.w3.org/2000/svg">
<path d="M80.8242 46.0113V48.4944H81.1098C81.3705 48.4944 81.4202 48.4074 81.5567 47.8363C81.8299 46.57 82.6493 45.8126 84.0274 45.5271C84.3874 45.4526 85.6662 45.3905 86.8457 45.3905H89.0183V54.2054C89.0183 60.14 88.9687 63.219 88.8818 63.6411C88.6583 64.684 87.8265 65.3792 86.796 65.3792C86.5974 65.3792 86.5353 65.4537 86.5353 65.6896V66H90.384H94.2328V65.702C94.2328 65.4537 94.1583 65.4041 93.7238 65.3296C92.9044 65.193 92.4946 64.9199 92.2091 64.2867C91.936 63.7032 91.936 63.6287 91.8987 54.5406L91.8615 45.3905H94.1335C97.2497 45.3905 98.156 45.6264 98.9879 46.6569C99.1865 46.9052 99.4597 47.4142 99.5838 47.7743C99.708 48.1467 99.8818 48.4447 99.9935 48.4695C100.167 48.5068 100.192 48.2212 100.192 46.0237V43.5282H99.8197C99.6086 43.5282 99.2983 43.6151 99.1244 43.7269C98.3795 44.2235 97.6718 44.2731 90.4461 44.2731C83.1707 44.2731 82.5127 44.2359 81.7802 43.7144C81.6312 43.6151 81.3581 43.5282 81.1718 43.5282H80.8242V46.0113Z" fill="white"/>
<path d="M1.26637 44.5959C1.2912 44.8691 1.40293 44.956 1.80023 45.0801C2.5079 45.2912 3.24041 45.6885 3.67494 46.0982L4.0474 46.4458L3.65011 51.1016C2.73138 61.4932 2.61964 62.5734 2.37133 63.3928C2.03612 64.4605 1.41535 65.044 0.34763 65.3047C0.0869074 65.3668 0 65.4537 0 65.6896V66H3.35214H6.70429V65.702C6.70429 65.4661 6.60497 65.3668 6.24492 65.2551C5.40068 64.9819 4.73025 64.5226 4.41986 63.9763C3.77427 62.8837 3.77427 62.7968 4.45711 55.4097C4.80474 51.6727 5.09029 48.5316 5.09029 48.4074C5.10271 48.035 5.28894 48.4571 8.95147 57.4086C12.2788 65.553 12.4898 66.0124 12.763 65.9752C13.0237 65.9379 13.272 65.4165 15.035 61.158C19.7528 49.7856 20.3984 48.2336 20.4357 48.2833C20.5226 48.3578 21.6027 61.754 21.6027 62.6603C21.5903 64.1874 21.0937 64.9199 19.8397 65.2675C19.4549 65.3668 19.3679 65.4413 19.3679 65.6896V66H23.2788H27.1896V65.702C27.1896 65.4537 27.1027 65.3792 26.6061 65.2551C25.2901 64.9323 24.8431 64.3115 24.5948 62.4616C24.5203 61.9154 24.1975 58.3397 23.8995 54.5282C23.2912 47.1163 23.2912 46.8183 23.8375 45.912C24.1354 45.4154 24.6941 45.0677 25.3397 44.9684C25.7494 44.9063 25.8239 44.8442 25.8239 44.5835V44.2731L23.2539 44.298L20.684 44.3352L17.1828 52.8273L13.6817 61.3318L13.4831 60.8973C13.3713 60.6614 11.807 56.8375 10.0068 52.4052L6.72912 44.3352L3.97291 44.298L1.22912 44.2731L1.26637 44.5959Z" fill="white"/>
<path d="M29.5488 44.5711C29.5488 44.8442 29.6233 44.8939 30.0951 44.956C31.287 45.1422 31.7215 45.7257 31.9077 47.4018C32.0567 48.7178 32.0691 61.4932 31.9202 62.921C31.8581 63.5045 31.7091 64.1625 31.5974 64.386C31.3491 64.8702 30.7779 65.2178 30.0827 65.3296C29.6233 65.3916 29.5488 65.4537 29.5488 65.702V66H37.3457H45.1425L45.6019 64.1129C45.8626 63.07 46.0612 62.1388 46.0612 62.0519C46.0612 61.9774 45.9371 61.9029 45.7757 61.9029C45.5522 61.9029 45.4156 62.0519 45.1673 62.5485C44.6459 63.6163 44.1369 64.2122 43.4913 64.5226C42.9077 64.8081 42.7836 64.8205 39.4314 64.8578C37.5319 64.8826 35.8434 64.8702 35.682 64.833C35.5206 64.7833 35.2723 64.6343 35.1357 64.4853C34.8998 64.2246 34.8874 64.0632 34.8874 59.9537V55.6953H38.0906C39.8412 55.6953 41.4924 55.7449 41.7531 55.807C42.4111 55.9684 42.796 56.3657 43.0443 57.1479C43.2305 57.7438 43.2926 57.8059 43.603 57.8059H43.9506L43.9258 55.1614L43.8886 52.5293H43.603C43.3671 52.5293 43.2678 52.6411 43.0816 53.1998C42.9574 53.5598 42.7091 54.0068 42.5353 54.193L42.2125 54.5158L38.55 54.553L34.8874 54.5903V49.9842V45.3905H38.612C40.7847 45.3905 42.5849 45.4402 42.945 45.5271C43.7147 45.6885 44.2238 46.2099 44.5217 47.1907C44.6831 47.6874 44.8073 47.8736 44.9687 47.8736C45.1798 47.8736 45.1922 47.7246 45.1922 46.0734V44.2731H37.3705H29.5488V44.5711Z" fill="white"/>
<path d="M48.793 44.5587C48.793 44.8318 48.8675 44.8815 49.5255 45.0056C50.3573 45.167 50.8043 45.5271 51.0526 46.2348C51.2885 46.9052 51.2885 63.3679 51.0526 64.0384C50.8043 64.7212 50.1587 65.2302 49.4137 65.3296C48.8675 65.4041 48.793 65.4413 48.793 65.702V66H52.7038H56.6146V65.702C56.6146 65.4537 56.5401 65.3916 56.0808 65.3296C55.2862 65.2054 54.7772 64.833 54.4668 64.1625C54.2061 63.6163 54.1936 63.3679 54.1564 59.7427L54.1067 55.9187L55.5221 55.956C56.7512 56.0056 57.0119 56.0429 57.6327 56.3533C58.5638 56.8126 59.7557 58.1038 60.9352 59.9289C63.5176 63.9391 64.0638 64.746 64.548 65.342L65.0571 66H67.2918H69.5266V65.702C69.5266 65.4661 69.4273 65.3792 69.0052 65.2675C67.7512 64.9199 66.7456 63.7901 64.7343 60.5124C64.1383 59.5316 63.3934 58.377 63.083 57.93C62.5119 57.123 60.8979 55.447 60.6993 55.447C60.6372 55.447 60.5876 55.3849 60.5876 55.3228C60.5876 55.2483 60.662 55.1986 60.749 55.1986C61.1711 55.1986 62.9341 54.193 63.4927 53.6343C65.1688 51.9582 65.4171 49.0406 64.0638 47.0542C63.2693 45.8995 61.8787 45.0056 60.2027 44.5711C59.5322 44.3973 58.5638 44.3476 54.1067 44.3104L48.793 44.2483V44.5587ZM58.0921 45.3284C59.1846 45.5892 60.004 46.0609 60.7117 46.8431C61.5808 47.7867 61.8663 48.6309 61.8663 50.1084C61.8539 52.4176 60.8607 53.9447 58.8618 54.7144C58.2907 54.9379 57.8189 55 56.1553 55.0497L54.1316 55.1117V50.1208V45.1422H55.7207C56.6891 45.1422 57.6079 45.2167 58.0921 45.3284Z" fill="white"/>
<path d="M71.0156 44.5711C71.0156 44.8318 71.1025 44.8815 71.7481 45.0056C72.3441 45.1174 72.5675 45.2415 72.8655 45.5768C73.0642 45.8126 73.2876 46.2223 73.3373 46.4707C73.387 46.7314 73.4366 50.7167 73.4366 55.3228V63.7032L73.1635 64.2619C72.8407 64.9199 72.3813 65.2302 71.5867 65.3296C71.0901 65.4041 71.0156 65.4537 71.0156 65.702V66H74.9265H78.8373V65.702C78.8373 65.4537 78.7628 65.3916 78.3034 65.3296C77.6206 65.2302 77.0371 64.8702 76.8012 64.3984C76.3915 63.6163 76.3418 62.4244 76.3915 54.5655C76.4287 46.1603 76.4287 46.1975 77.124 45.5023C77.3475 45.2788 77.7199 45.105 78.1545 45.0056C78.738 44.8691 78.8373 44.8194 78.8373 44.5587V44.2731H74.9265H71.0156V44.5711Z" fill="white"/>
<path d="M102.178 44.5711C102.178 44.8318 102.265 44.8815 102.91 45.0056C103.506 45.1174 103.73 45.2415 104.028 45.5768C104.226 45.8126 104.45 46.2223 104.499 46.4707C104.549 46.7314 104.599 50.6795 104.599 55.2607C104.599 61.8036 104.561 63.6783 104.437 64.0384C104.189 64.7212 103.543 65.2302 102.799 65.3296C102.252 65.4041 102.178 65.4413 102.178 65.702V66H106.089H109.999V65.702C109.999 65.4537 109.925 65.3916 109.466 65.3296C108.783 65.2302 108.199 64.8702 107.963 64.3984C107.554 63.6163 107.504 62.4244 107.554 54.5655C107.591 46.1603 107.591 46.2099 108.286 45.5023C108.51 45.2788 108.882 45.105 109.317 45.0056C109.9 44.8691 109.999 44.8194 109.999 44.5587V44.2731H106.089H102.178V44.5711Z" fill="white"/>
</svg>
