<svg width="110" height="110" viewBox="0 0 110 110" fill="none" xmlns="http://www.w3.org/2000/svg">
<path d="M0 48.3793H6.02546L15.8779 59.0502V48.3793H23.1523V72.049H17.0911L7.26935 61.3815V72.049H0V48.3793Z" fill="white"/>
<path d="M36.7966 48.3793H50.214C56.51 48.3793 59.4027 50.6357 59.4027 54.5784C59.4027 57.061 57.6041 59.1285 54.8679 59.8041V59.8687C58.101 60.4473 60.1004 62.8789 60.1004 65.6917C60.1004 68.7291 59.2938 72.049 51.2077 72.049H36.7949V48.3793H36.7966ZM44.733 57.7808H47.9661C49.9859 57.7808 51.4732 57.2482 51.4732 55.2471C51.4732 53.3038 49.877 52.71 47.9661 52.71H44.733V57.7808ZM44.733 67.737H48.4C50.3484 67.7285 51.7301 66.9696 51.7301 65.0978C51.7301 62.9708 50.6479 62.4705 48.4068 62.4705H44.733V67.7302V67.737Z" fill="white"/>
<path d="M34.8325 46.3663H25.5195V36L34.8325 46.3663Z" fill="white"/>
<path d="M25.5195 48.3793V48.4423L34.4939 58.4411H25.5195V72.049H34.5892V48.3793H25.5195Z" fill="white"/>
<path d="M77.8026 53.4689C77.8026 53.5336 77.7839 53.5642 77.7125 53.5642H77.4674C77.4497 53.5669 77.4315 53.564 77.4154 53.5561C77.3993 53.5482 77.386 53.5356 77.3772 53.52L75.6637 50.4843C75.5818 50.3492 75.509 50.2088 75.4459 50.064V53.4672C75.4459 53.5319 75.4187 53.5625 75.354 53.5625H75.1107C75.0392 53.5625 75.0137 53.5319 75.0137 53.4672V49.2727C75.0137 49.2081 75.0392 49.1757 75.1107 49.1757H75.354C75.3999 49.1757 75.4187 49.1893 75.4323 49.2149L77.1832 52.2948C77.2343 52.3867 77.3772 52.6845 77.3772 52.6845V49.2727C77.3772 49.2081 77.4028 49.1757 77.4674 49.1757H77.7125C77.7839 49.1757 77.8026 49.2081 77.8026 49.2727V53.4723V53.4689Z" fill="white"/>
<path d="M79.0625 50.0639C79.0625 49.5534 79.4028 49.1212 80.4578 49.1212C81.5128 49.1212 81.8583 49.5466 81.8583 50.0639V52.6759C81.8583 53.1864 81.5282 53.6203 80.4578 53.6203C79.3875 53.6203 79.0625 53.1932 79.0625 52.6759V50.0639ZM81.4005 50.1354C81.4005 49.761 81.1419 49.516 80.4578 49.516C79.7738 49.516 79.5202 49.761 79.5202 50.1354V52.6027C79.5202 52.9771 79.7789 53.2221 80.4578 53.2221C81.1368 53.2221 81.4005 52.9771 81.4005 52.6027V50.1354Z" fill="white"/>
<path d="M83.5701 51.7758V53.4774C83.5701 53.5421 83.5496 53.5727 83.4782 53.5727H83.2093C83.1447 53.5727 83.1191 53.5421 83.1191 53.4774V49.2727C83.1191 49.2081 83.1447 49.1757 83.2025 49.1757H84.4821C85.5542 49.1757 85.8843 49.6028 85.8843 50.1184V50.8433C85.8843 51.2432 85.6835 51.5937 85.0828 51.7214L85.9217 53.4723C85.9489 53.5285 85.903 53.5676 85.8315 53.5676H85.561C85.4895 53.5676 85.4759 53.5285 85.4436 53.4723L84.6438 51.7707H83.5718L83.5701 51.7758ZM83.5701 49.5637V51.3844H84.4804C85.1713 51.3844 85.4231 51.1394 85.4231 50.7582V50.1865C85.4231 49.8121 85.1713 49.5671 84.4804 49.5671L83.5701 49.5637Z" fill="white"/>
<path d="M87.1586 53.5642C87.1008 53.5642 87.082 53.5336 87.082 53.4689V49.2727C87.082 49.2081 87.1076 49.1757 87.1654 49.1757H88.4706C89.5358 49.1757 89.871 49.6028 89.871 50.1201V52.6215C89.871 53.132 89.5307 53.5642 88.4706 53.5642H87.1586ZM87.533 49.5671V53.1711H88.4706C89.1614 53.1711 89.4133 52.9244 89.4133 52.5517V50.1865C89.4133 49.8121 89.1614 49.5671 88.4706 49.5671H87.533Z" fill="white"/>
<path d="M91.5835 53.4689C91.5835 53.5336 91.5631 53.5642 91.4933 53.5642H91.2211C91.1581 53.5642 91.1309 53.5336 91.1309 53.4689V49.2727C91.1309 49.2081 91.1581 49.1757 91.2211 49.1757H91.4933C91.5631 49.1757 91.5835 49.2081 91.5835 49.2727V53.4723V53.4689Z" fill="white"/>
<path d="M95.5683 52.6759C95.5683 53.1864 95.2705 53.6203 94.207 53.6203C93.1435 53.6203 92.8457 53.1932 92.8457 52.6759V50.0639C92.8457 49.5534 93.1435 49.1212 94.207 49.1212C95.2705 49.1212 95.5683 49.5466 95.5683 50.0639V50.394C95.5683 50.4655 95.5428 50.4978 95.4781 50.4978H95.2195C95.148 50.4978 95.1208 50.4655 95.1208 50.394V50.1354C95.1208 49.761 94.8962 49.516 94.2121 49.516C93.5281 49.516 93.3 49.761 93.3 50.1354V52.6027C93.3 52.9771 93.5263 53.2221 94.2121 53.2221C94.8979 53.2221 95.1208 52.9771 95.1208 52.6027V52.2624C95.1208 52.1978 95.148 52.1654 95.2195 52.1654H95.4781C95.5428 52.1654 95.5683 52.1978 95.5683 52.2624V52.6759Z" fill="white"/>
<path d="M75.4722 61.2181C75.4722 61.2811 75.4517 61.3151 75.382 61.3151H75.1114C75.0451 61.3151 75.0195 61.2811 75.0195 61.2181V57.0202C75.0195 56.9555 75.0451 56.9215 75.1114 56.9215H75.382C75.4517 56.9215 75.4722 56.9555 75.4722 57.0202V61.2181Z" fill="white"/>
<path d="M79.5875 61.2181C79.5875 61.2811 79.5671 61.3151 79.4957 61.3151H79.2506C79.2327 61.3171 79.2147 61.3138 79.1986 61.3057C79.1826 61.2975 79.1693 61.2848 79.1604 61.2692L77.4486 58.2335C77.3674 58.0977 77.2941 57.9574 77.2291 57.8132V61.2164C77.2291 61.2794 77.2036 61.3134 77.1389 61.3134H76.8939C76.8224 61.3134 76.7969 61.2794 76.7969 61.2164V57.0202C76.7969 56.9555 76.8224 56.9215 76.8939 56.9215H77.1389C77.1831 56.9215 77.2036 56.9351 77.2155 56.9606L78.9664 60.0423C79.0175 60.1325 79.1604 60.4286 79.1604 60.4286V57.0253C79.1604 56.9606 79.186 56.9266 79.2506 56.9266H79.4957C79.5671 56.9266 79.5875 56.9606 79.5875 57.0253V61.2181Z" fill="white"/>
<path d="M81.7754 61.2181L80.4873 57.0202C80.4685 56.9555 80.4873 56.9215 80.5587 56.9215H80.8565C80.9212 56.9215 80.9467 56.9555 80.9671 57.0202L81.8894 60.0491C81.9541 60.2686 82.0255 60.6685 82.0391 60.7298C82.0776 60.5053 82.1287 60.2831 82.1923 60.0644L83.1231 57.0236C83.1418 56.9589 83.1673 56.9249 83.232 56.9249H83.5043C83.5757 56.9249 83.6012 56.9589 83.5808 57.0236L82.291 61.2215C82.2706 61.2845 82.2382 61.3185 82.1736 61.3185H81.8945C81.8659 61.3205 81.8375 61.3117 81.8151 61.2937C81.7927 61.2757 81.7779 61.2499 81.7737 61.2215" fill="white"/>
<path d="M84.5717 61.3151C84.5138 61.3151 84.4883 61.2811 84.4883 61.2181V57.0202C84.4883 56.9555 84.5138 56.9215 84.5768 56.9215H86.7804C86.845 56.9215 86.8774 56.9487 86.8774 57.0202V57.2193C86.8774 57.2908 86.845 57.3163 86.7804 57.3163H84.9324V58.8205H86.6562C86.7293 58.8205 86.7548 58.8478 86.7548 58.9175V59.1047C86.7548 59.1762 86.7293 59.2034 86.6562 59.2034H84.9324V60.9203H86.8501C86.9148 60.9203 86.9471 60.9459 86.9471 61.0105V61.2181C86.9471 61.2879 86.9148 61.3151 86.8501 61.3151H84.5717Z" fill="white"/>
<path d="M89.2918 57.2585C88.6112 57.2585 88.4002 57.4967 88.4002 57.871V58.0667C88.398 58.1801 88.4336 58.291 88.5013 58.3819C88.5691 58.4728 88.6652 58.5385 88.7745 58.5687L89.9895 59.0281C90.3298 59.1575 90.6599 59.4144 90.6599 59.8688V60.4235C90.6599 60.934 90.3196 61.3662 89.2782 61.3662C88.2368 61.3662 87.8965 60.9391 87.8965 60.4235V60.0678C87.8965 59.9964 87.922 59.9708 87.9867 59.9708H88.2521C88.3168 59.9708 88.3423 59.9964 88.3423 60.0678V60.3639C88.3423 60.74 88.5873 60.9782 89.2714 60.9782C89.9555 60.9782 90.209 60.74 90.209 60.3639V59.964C90.209 59.6237 89.9248 59.4927 89.673 59.3957L88.5176 58.9516C88.3566 58.8938 88.2167 58.7889 88.1163 58.6505C88.0158 58.5121 87.9594 58.3466 87.9543 58.1756V57.8132C87.9543 57.3027 88.2589 56.8705 89.285 56.8705C90.3111 56.8705 90.6293 57.2976 90.6293 57.8132V58.1212C90.6293 58.1841 90.6038 58.2182 90.5323 58.2182H90.2669C90.2022 58.2182 90.1767 58.1841 90.1767 58.1212V57.8744C90.1767 57.5001 89.964 57.2619 89.2918 57.2619" fill="white"/>
<path d="M94.1159 56.93C94.1789 56.93 94.2129 56.9572 94.2129 57.0287V57.2278C94.2129 57.2993 94.1789 57.3248 94.1159 57.3248H93.0047V61.2181C93.0047 61.2811 92.9792 61.3151 92.9146 61.3151H92.6372C92.5657 61.3151 92.5402 61.2811 92.5402 61.2181V57.3163H91.429C91.3576 57.3163 91.332 57.2908 91.332 57.2193V57.0202C91.332 56.9487 91.3576 56.9215 91.429 56.9215L94.1159 56.93Z" fill="white"/>
<path d="M98.6029 61.2181C98.6029 61.2811 98.5774 61.3151 98.5059 61.3151H98.2472C98.1775 61.3151 98.152 61.2811 98.152 61.2181V57.8847C98.1158 58.0233 98.0698 58.1593 98.0141 58.2913L97.0782 60.5511C97.071 60.5793 97.0544 60.6042 97.0313 60.6218C97.0081 60.6394 96.9797 60.6486 96.9506 60.6481H96.7107C96.646 60.6481 96.6137 60.6158 96.5882 60.5511L95.6131 58.2318C95.5694 58.1209 95.533 58.0072 95.5042 57.8915V61.2181C95.5042 61.2811 95.477 61.3151 95.4123 61.3151H95.1673C95.0958 61.3151 95.0703 61.2811 95.0703 61.2181V57.0202C95.0703 56.9556 95.0958 56.9215 95.1673 56.9215H95.4123C95.4301 56.9197 95.448 56.924 95.4631 56.9335C95.4782 56.9431 95.4897 56.9574 95.4957 56.9743L96.7243 59.8228C96.7691 59.93 96.8078 60.0396 96.84 60.1512C96.84 60.1325 96.9098 59.9504 96.9625 59.8279L98.1537 56.9675C98.1604 56.9497 98.1731 56.9348 98.1895 56.9252C98.2059 56.9156 98.225 56.9119 98.2438 56.9147H98.5025C98.574 56.9147 98.5995 56.9488 98.5995 57.0134V61.2181H98.6029Z" fill="white"/>
<path d="M100.009 61.3151C99.9513 61.3151 99.9258 61.2811 99.9258 61.2181V57.0202C99.9258 56.9555 99.9513 56.9215 100.016 56.9215H102.228C102.291 56.9215 102.323 56.9487 102.323 57.0202V57.2193C102.323 57.2908 102.291 57.3163 102.228 57.3163H100.378V58.8205H102.097C102.169 58.8205 102.194 58.8478 102.194 58.9175V59.1047C102.194 59.1762 102.169 59.2034 102.097 59.2034H100.378V60.9203H102.296C102.361 60.9203 102.393 60.9459 102.393 61.0105V61.2181C102.393 61.2879 102.361 61.3151 102.296 61.3151H100.009Z" fill="white"/>
<path d="M106.255 61.2181C106.255 61.2811 106.236 61.3151 106.164 61.3151H105.919C105.901 61.3174 105.883 61.3142 105.867 61.306C105.851 61.2978 105.838 61.285 105.829 61.2692L104.117 58.2335C104.036 58.0975 103.962 57.9572 103.896 57.8132V61.2164C103.896 61.2794 103.871 61.3134 103.808 61.3134H103.561C103.548 61.3155 103.534 61.3144 103.521 61.3102C103.509 61.306 103.497 61.2989 103.488 61.2895C103.478 61.2801 103.471 61.2685 103.467 61.2558C103.463 61.2431 103.462 61.2296 103.464 61.2164V57.0202C103.464 56.9556 103.491 56.9215 103.561 56.9215H103.808C103.823 56.9191 103.838 56.9216 103.852 56.9287C103.866 56.9357 103.877 56.9469 103.884 56.9607L105.635 60.0423C105.686 60.1325 105.829 60.4286 105.829 60.4286V57.0253C105.829 56.9607 105.855 56.9266 105.919 56.9266H106.164C106.236 56.9266 106.255 56.9607 106.255 57.0253V61.2181Z" fill="white"/>
<path d="M109.903 56.93C109.968 56.93 110 56.9572 110 57.0287V57.2278C110 57.2993 109.968 57.3248 109.903 57.3248H108.792V61.2181C108.792 61.2811 108.766 61.3151 108.702 61.3151H108.424C108.353 61.3151 108.327 61.2811 108.327 61.2181V57.3163H107.216C107.146 57.3163 107.119 57.2908 107.119 57.2193V57.0202C107.119 56.9487 107.146 56.9215 107.216 56.9215L109.903 56.93Z" fill="white"/>
<path d="M75.1114 69.0626C75.0451 69.0626 75.0195 69.0303 75.0195 68.9673V64.7677C75.0195 64.7031 75.0451 64.6724 75.1114 64.6724H76.2209C77.2878 64.6724 77.6162 65.0655 77.6162 65.576V66.0014C77.6162 66.3502 77.4614 66.6225 77.0343 66.7637C77.5584 66.8794 77.7966 67.1636 77.7966 67.5584V68.1318C77.7966 68.6423 77.4682 69.0626 76.3961 69.0626H75.1114ZM75.4722 65.0519V66.6293H76.2855C76.9117 66.6293 77.1636 66.3758 77.1636 66.0014V65.6611C77.1636 65.2799 76.9066 65.0655 76.2209 65.0655L75.4722 65.0519ZM75.4722 66.9832V68.6849H76.403C77.0938 68.6849 77.3457 68.4381 77.3457 68.0638V67.5856C77.3457 67.23 77.0938 66.9849 76.403 66.9849L75.4722 66.9832Z" fill="white"/>
<path d="M80.276 64.7677L81.5692 68.9656C81.5879 69.032 81.5692 69.0626 81.4909 69.0626H81.2136C81.1489 69.0626 81.1166 69.032 81.0978 68.9656L80.7422 67.8204H79.2618L78.913 68.969C78.8942 69.0354 78.8687 69.066 78.804 69.066H78.5454C78.4807 69.066 78.4552 69.0354 78.4756 68.969L79.7587 64.7711C79.7633 64.7424 79.7787 64.7165 79.8018 64.6988C79.8249 64.6811 79.8539 64.6729 79.8829 64.6758H80.1602C80.1881 64.6739 80.2156 64.6827 80.2371 64.7004C80.2586 64.7181 80.2725 64.7434 80.276 64.7711M80.1739 65.9418C80.1092 65.7342 80.0241 65.2306 80.0037 65.1591C79.9646 65.4178 79.9106 65.674 79.842 65.9265L79.3639 67.458H80.6367L80.1653 65.9486L80.1739 65.9418Z" fill="white"/>
<path d="M85.2511 68.9656C85.2511 69.0303 85.2307 69.0626 85.1592 69.0626H84.9108C84.8931 69.0648 84.8751 69.0618 84.8591 69.0539C84.8431 69.0461 84.8297 69.0337 84.8206 69.0184L83.1105 65.9827C83.0288 65.8471 82.9555 65.7068 82.8909 65.5624V68.9656C82.8909 69.0303 82.8654 69.0626 82.8008 69.0626H82.5557C82.4843 69.0626 82.457 69.0303 82.457 68.9656V64.7677C82.457 64.703 82.4843 64.6707 82.5557 64.6707H82.8008C82.845 64.6707 82.8654 64.6826 82.8773 64.7099L84.6283 67.7898C84.6811 67.88 84.8223 68.1778 84.8223 68.1778V64.7745C84.8223 64.7099 84.8478 64.6775 84.9125 64.6775H85.1575C85.229 64.6775 85.2494 64.7099 85.2494 64.7745V68.9724L85.2511 68.9656Z" fill="white"/>
<path d="M89.413 68.9656C89.4217 68.9736 89.4276 68.9842 89.4299 68.9958C89.4322 69.0073 89.4308 69.0193 89.4259 69.0301C89.421 69.0408 89.4129 69.0497 89.4026 69.0556C89.3924 69.0614 89.3805 69.0639 89.3688 69.0626H89.0064C88.9752 69.0616 88.9448 69.052 88.9187 69.0349C88.8926 69.0178 88.8717 68.9938 88.8583 68.9656L87.2367 67.0411H87.0376V68.9656C87.0376 69.0303 87.0171 69.0626 86.9457 69.0626H86.6751C86.6037 69.0626 86.5781 69.0303 86.5781 68.9656V64.7677C86.5781 64.703 86.6037 64.6707 86.6751 64.6707H86.9525C87.024 64.6707 87.0444 64.703 87.0444 64.7677V66.6922H87.2435L88.729 64.7575C88.7467 64.7306 88.7707 64.7083 88.7988 64.6926C88.8269 64.677 88.8584 64.6683 88.8906 64.6673H89.1867C89.2514 64.6673 89.2769 64.7064 89.2327 64.7643L87.6331 66.8352L89.4215 68.9656H89.413Z" fill="white"/>
<path d="M67.8356 74.1113H66.9746V46.3152H67.8356V74.1113Z" fill="white"/>
</svg>
