<svg width="110" height="110" viewBox="0 0 110 110" fill="none" xmlns="http://www.w3.org/2000/svg">
<path d="M0.56851 73.3685C0.56851 76.3568 2.60931 77.4793 5.64137 78.2081C8.52765 78.8932 9.13989 79.7679 9.13989 80.9049C9.13989 82.144 8.00287 83.0186 6.39938 83.0186C4.65012 83.0186 3.14867 82.3918 1.55976 81.0069C1.51603 81.0798 0.0583087 82.8582 0 82.902C1.72011 84.4763 3.97957 85.3801 6.34107 85.3509C9.59178 85.3509 11.7638 83.4559 11.7638 80.6134C11.7638 78.1352 10.2623 76.6484 6.88043 75.832C3.81922 75.074 3.20698 74.2723 3.20698 73.1061C3.20698 72.1149 4.08161 71.0945 5.75798 71.0945C7.11366 71.0945 8.48392 71.6047 9.91248 72.6979L11.2973 70.6863C9.73755 69.4035 7.79879 68.7184 5.80172 68.7621C2.75509 68.7475 0.56851 70.6863 0.56851 73.3685ZM19.9853 72.902C19.9562 72.9458 17.3906 81.0944 17.3906 81.0944L15.0582 72.9312H12.4343C12.4635 73.0332 16.1224 84.5929 16.1515 84.6658H18.4401C18.4693 84.5929 21.064 76.5463 21.064 76.5463C21.064 76.5463 23.6588 84.6221 23.6588 84.6658H25.962C25.9911 84.5929 29.6791 73.0478 29.7083 72.9312H27.1573L24.7812 81.0944L22.1573 72.902H19.9853Z" fill="white"/>
<path d="M31.1211 79.0973V79.1411C31.1211 82.7416 33.5701 85.3364 36.9957 85.3364C38.5263 85.3801 40.0278 84.9428 41.296 84.0973L40.6108 82.0128C39.5613 82.7416 38.3222 83.1352 37.0686 83.0769C35.2464 83.0769 33.9782 81.9545 33.7158 80.0886V80.0449H42.1706L42.2143 79.3451C42.2143 76.1382 40.5088 72.902 36.7479 72.902C33.5263 72.8729 31.1211 75.5551 31.1211 79.0973ZM33.6429 78.2519C33.8908 76.3131 35.0715 75.0449 36.675 75.0449C38.2493 75.0449 39.4447 76.2839 39.6342 78.2519V78.2956H33.6284V78.2519H33.6429ZM52.8702 68.7475V74.4326L52.7974 74.3889C51.8498 73.5872 50.6399 73.1498 49.4009 73.1936C46.8499 73.1936 44.2697 75.2781 44.2697 79.2723V79.316C44.2697 83.2956 46.9956 85.3947 49.6924 85.3947C51.5874 85.3509 53.4825 85.176 55.3484 84.8553V68.7621C55.3484 68.7475 52.8702 68.7475 52.8702 68.7475ZM46.777 79.2868V79.2431C46.777 77.0274 48.1327 75.4239 50.0277 75.4239C51.777 75.4239 52.9431 76.6192 52.9431 77.1003V82.8874H52.8994C51.9519 83.0332 50.9752 83.1061 50.0277 83.0769C48.1618 83.1061 46.777 81.4588 46.777 79.2868ZM59.5029 68.7475V84.8407C61.3687 85.1614 63.2638 85.3218 65.1588 85.3801C67.8264 85.3801 70.5524 83.2956 70.5524 79.3014V79.2431C70.5524 75.2635 67.9722 73.1644 65.4212 73.1644C64.1821 73.1207 62.9722 73.558 62.0247 74.3598L61.9518 74.4035V68.7184H59.5029V68.7475ZM61.9664 82.9166H61.9372V77.1148C61.9372 76.6338 63.1034 75.4385 64.8235 75.4385C66.7186 75.4385 68.0742 77.042 68.0742 79.2577V79.3014C68.0742 81.4588 66.6894 83.1206 64.8235 83.1206C63.8614 83.1061 62.9139 83.0623 61.9664 82.9166ZM73.6719 73.8787C73.701 73.9516 74.3278 75.9487 74.3716 76.0216C75.392 75.5405 76.5144 75.2927 77.6514 75.2635C79.5027 75.2635 80.5377 76.2111 80.5377 77.9166V78.2081L80.494 78.179C79.4736 77.8437 78.4095 77.6688 77.3162 77.6688C74.4299 77.6688 72.6806 79.1265 72.6806 81.6046V81.6483C72.6806 84.1993 74.7943 85.3364 76.7331 85.3364C78.8468 85.3072 80.9605 85.1177 83.045 84.7824V77.9312C83.045 74.6076 81.3249 72.8583 78.0159 72.8583C76.4998 72.8729 75.013 73.2227 73.6719 73.8787ZM75.1879 81.5317V81.488C75.1879 80.2781 76.1792 79.5638 77.8847 79.5638C78.7885 79.5638 79.6777 79.7387 80.5377 80.0449H80.5669V83.1352H80.5377C79.5173 83.3101 78.4969 83.383 77.4765 83.3539C76.1063 83.3539 75.1879 82.625 75.1879 81.5317Z" fill="white"/>
<path d="M85.8027 73.4122V84.6658H88.3829V75.3072H88.4121C89.2867 75.1906 90.1613 75.1177 91.0359 75.1323C92.6103 75.1323 93.587 76.2547 93.587 78.1206V84.6803H96.1671V77.348C96.1671 74.6221 94.5928 72.9311 92.0563 72.9311C89.9864 72.9311 87.8727 73.0915 85.8027 73.4122ZM98.9513 68.0332V84.6512H101.604V81.2547L103.325 79.4617L106.94 84.6658H110.001L105.117 77.625C105.117 77.625 109.68 72.9603 109.826 72.8145H106.619L101.59 78.1789V68.0624L98.9513 68.0332Z" fill="white"/>
<path d="M55.5324 23C46.2481 23 38.7617 30.5173 38.7617 39.8017C38.7617 49.086 46.2791 56.6033 55.5324 56.6033C64.7857 56.6033 72.303 49.086 72.303 39.8017C72.303 30.5173 64.8167 23 55.5324 23ZM55.5324 55.0689C49.3325 55.0689 43.7526 51.3179 41.3967 45.583C39.0252 39.8482 40.3582 33.2608 44.7291 28.8899C49.1155 24.519 55.7184 23.2015 61.4223 25.5884C67.1261 27.9754 70.8771 33.5708 70.8616 39.7707C70.8616 48.218 64.0107 55.0689 55.5634 55.0689H55.5324Z" fill="white"/>
<path d="M58.0888 29.8509H58.4453C58.5538 29.8509 58.6778 29.9749 58.7553 29.9749C58.8328 29.9749 58.9413 29.9749 59.0188 29.9439L59.1428 29.8199C59.2513 29.6959 59.4063 29.6339 59.5613 29.6649C59.6853 29.6959 59.8247 29.7424 59.9177 29.7889C59.9952 29.8354 60.0418 29.9439 60.0418 30.0214C60.0418 30.1454 59.9332 30.1454 59.9177 30.2849C59.8867 30.4089 59.9488 30.5949 60.0418 30.5949C60.1347 30.5949 60.1967 30.5639 60.2742 30.5639C60.3517 30.5329 60.4602 30.5174 60.5377 30.5329C60.6617 30.6569 60.7392 30.8119 60.7702 30.9669C60.8012 31.0909 60.8787 31.4008 61.0027 31.4008C61.1267 31.4008 61.1887 31.2149 61.1887 31.0444C61.1887 30.9204 61.1887 30.8119 61.1577 30.6879C61.1267 30.4554 61.1267 30.4554 61.0337 30.3314C60.9562 30.2229 60.8787 30.1299 60.7702 30.0214C60.6617 29.9749 60.5842 29.8974 60.5377 29.7889C60.4292 29.6649 60.4137 29.4789 60.3052 29.3549C60.2277 29.2309 60.1037 29.0914 59.9487 29.0449C59.8247 29.0139 59.7163 29.0139 59.5923 29.0139C59.4838 29.0139 59.4063 29.1224 59.3288 29.1379C59.2203 29.1689 59.1738 29.2619 59.0963 29.2929C59.0188 29.4014 58.9413 29.4789 58.8328 29.5254C58.7088 29.5254 58.6778 29.4169 58.5693 29.3394C58.4918 29.2619 58.4143 29.1844 58.3368 29.1069C58.3058 29.1069 58.1043 29.0759 58.0733 29.0759C57.9648 29.0759 57.8873 29.1844 57.8408 29.2619C57.7633 29.3859 57.7633 29.5719 57.8408 29.6959C57.8563 29.7734 57.9648 29.8199 58.0888 29.8509ZM58.6623 31.5248C58.6933 31.4938 58.7863 31.4163 58.7863 31.3388C58.7863 31.2614 58.7863 31.1839 58.7553 31.1064C58.7243 30.9049 58.6313 30.6879 58.4453 30.5639H58.2128C58.0578 30.5949 57.7788 30.6879 57.8563 30.9204C57.8873 31.0444 58.0113 31.0444 58.1198 31.1529C58.1663 31.2304 58.2283 31.3079 58.2438 31.3854C58.2748 31.4938 58.3523 31.5713 58.3988 31.5713C58.5073 31.6643 58.5848 31.5868 58.6623 31.5248ZM56.1978 35.6168C56.2288 35.7253 56.3063 35.8493 56.3838 35.8493C56.5698 35.8803 56.6473 35.7253 56.6938 35.6168C56.8178 35.4308 56.9263 35.2603 57.0038 35.0433C57.0348 34.9348 57.1278 34.8573 57.1898 34.7798C57.2208 34.6713 57.3138 34.3458 57.1588 34.3148C56.9728 34.2838 56.9263 34.4388 56.8953 34.5008C56.8643 34.5318 56.7403 34.6868 56.6318 34.6868C56.5233 34.6868 56.4458 34.5628 56.3993 34.5008C56.2908 34.3923 56.2133 34.3148 56.2133 34.2683C56.1823 34.1443 56.1048 33.8343 55.9498 33.8498C55.8413 33.8498 55.7173 34.1133 55.7173 34.1598C55.7173 34.2683 55.7483 34.3458 55.8258 34.4233C55.8568 34.5008 55.9033 34.5783 55.9498 34.6558C56.0273 34.7333 56.1048 34.8418 56.1823 34.9193C56.2133 35.0278 56.1513 35.1518 56.1823 35.2758C56.1048 35.3843 56.1203 35.5083 56.1978 35.6168ZM57.2828 31.7108H57.0503C56.9418 31.6798 56.8643 31.5248 56.7868 31.4473C56.6783 31.4163 56.6318 31.3388 56.5233 31.3233C56.4148 31.2149 56.2598 31.1684 56.1048 31.1994C55.9808 31.2304 55.8413 31.3234 55.8413 31.4628C55.8413 31.5713 55.9653 31.5868 56.0738 31.5868C56.3063 31.6178 56.5388 31.7418 56.6473 31.9433C56.6783 31.9743 56.6783 32.0518 56.7558 32.0673L56.8798 32.1913C57.0038 32.2998 57.1898 32.2223 57.2363 32.4238C57.2363 32.5013 57.2363 32.5788 57.2673 32.6563C57.2983 32.7648 57.3913 32.8423 57.4223 32.9663C57.4223 33.0438 57.4223 33.1213 57.4533 33.1988C57.4843 33.2763 57.5308 33.3228 57.6393 33.3228C57.8253 33.3228 57.7633 32.7493 57.7633 32.5943C57.7323 32.3618 57.6548 32.0983 57.4998 31.9278C57.4378 31.8193 57.3603 31.7108 57.2828 31.7108ZM56.8023 28.3474C56.9108 28.3784 57.0658 28.4559 57.1588 28.3784C57.2518 28.3009 57.3603 28.1924 57.3913 28.0684C57.3913 27.9599 57.2673 27.8824 57.1588 27.8359C57.0348 27.8049 56.8953 27.8049 56.7713 27.8049C56.6628 27.8049 56.5388 27.8359 56.5388 27.9289C56.5388 28.0374 56.5698 28.1614 56.6473 28.1924C56.6473 28.2699 56.7713 28.3474 56.8023 28.3474ZM58.5073 34.5008C58.5848 34.5008 58.6313 34.4543 58.6623 34.3923L58.7863 34.2683C58.8173 34.1598 58.8173 33.9118 58.8948 33.8343C58.9723 33.7568 59.0188 33.6793 59.0808 33.5708C59.1273 33.4933 59.2048 33.4468 59.3133 33.3848C59.3443 33.3538 59.4373 33.2763 59.4993 33.2608C59.5303 33.2298 59.6233 33.1523 59.6233 33.1058C59.6233 32.9818 59.4993 32.9818 59.4373 32.8423C59.4063 32.7183 59.4683 32.6563 59.4373 32.5323C59.4063 32.4083 59.0188 32.3463 59.0033 32.5323C58.9723 32.6563 58.9723 32.7958 59.0033 32.9508C59.0033 33.0593 58.9723 33.1833 58.9723 33.2143C58.8638 33.4468 58.6158 33.5243 58.5383 33.6793V33.8653C58.5073 33.9118 58.5073 33.9738 58.5073 34.0513C58.4453 34.2218 58.4453 34.4543 58.5073 34.5008ZM60.3052 31.2924C60.1967 31.1684 59.8712 31.1064 59.7163 31.1064C59.6078 31.1064 59.5613 31.2304 59.5923 31.4163C59.5923 31.4473 59.7008 31.5248 59.7163 31.5403C59.7473 31.5713 59.8403 31.6488 59.9023 31.6643C60.0262 31.8193 60.0572 32.0983 60.2122 32.2068C60.2432 32.2378 60.4757 32.3618 60.5687 32.3153C60.6772 32.2378 60.5687 32.1913 60.5377 32.0828C60.4912 32.0363 60.4292 31.9278 60.4292 31.8503C60.4292 31.8193 60.4602 31.7263 60.4602 31.6643C60.4447 31.5558 60.3827 31.4318 60.3052 31.2924ZM59.8402 36.5467L59.9643 36.4227L60.0882 36.2987C60.1192 36.2677 60.1192 36.1748 60.1967 36.1438C60.2277 36.0353 60.3052 36.0198 60.3052 35.9113C60.3052 35.8028 60.2277 35.7253 60.1192 35.7253C60.0883 35.7253 60.0728 35.7253 60.0418 35.7563C59.9178 35.8028 59.8093 35.8803 59.7318 35.9888C59.7008 36.0198 59.6078 36.1128 59.6078 36.1748C59.5613 36.2988 59.5303 36.4072 59.4993 36.5312C59.4838 36.5467 59.6853 36.5777 59.8402 36.5467ZM53.4854 34.1753C53.5164 34.2838 53.6094 34.3613 53.6714 34.4078C53.8264 34.4853 54.0124 34.4078 54.0589 34.2528C54.0899 34.1753 54.0899 34.0978 54.0589 34.0513C54.0124 33.9273 53.9349 33.7878 53.7954 33.7413C53.6714 33.6328 53.5629 33.4313 53.3769 33.4778C53.2219 33.5088 53.2684 33.7413 53.3459 33.9118C53.4079 34.0668 53.4854 34.0978 53.4854 34.1753ZM52.7724 30.8119C52.8034 30.8429 52.9274 30.8429 53.0049 30.8429C53.0824 30.8429 53.1289 30.7344 53.2374 30.6879C53.3459 30.6104 53.3614 30.5639 53.3614 30.4244C53.3614 30.3004 53.2529 30.3004 53.1754 30.3004C53.0979 30.3004 53.0514 30.4089 52.9119 30.4244C52.7879 30.4554 52.6794 30.5329 52.6794 30.5794C52.6329 30.7034 52.7104 30.7344 52.7724 30.8119ZM56.9728 30.1919C57.0968 30.1919 57.2828 30.1919 57.2828 30.0834C57.2828 29.9749 57.1743 29.9284 57.1278 29.8509C56.9728 29.8044 56.8488 29.7734 56.6938 29.7424C56.5853 29.7734 56.5078 29.8974 56.5698 30.0059C56.5388 30.2694 56.7713 30.1919 56.9728 30.1919ZM52.0749 33.6328C52.1989 33.6328 52.4314 33.6018 52.4314 33.5088C52.4314 33.4313 52.4004 33.3228 52.3229 33.2763C52.2144 33.1678 52.1369 33.1523 52.0594 33.0438C51.9509 32.9663 51.7959 32.9198 51.6409 32.9198C51.5324 32.9198 51.4859 32.9973 51.4549 33.1058C51.4549 33.1368 51.5634 33.2298 51.5789 33.2608L51.7029 33.3848C51.9199 33.4933 51.9354 33.6328 52.0749 33.6328ZM54.8649 31.1374C54.8959 31.1064 55.0509 31.0134 55.0509 30.9049C55.0509 30.7189 54.7409 30.7189 54.6169 30.7809C54.5394 30.7809 54.4309 30.8119 54.3844 30.8894C54.2759 30.9204 54.2604 31.1529 54.2604 31.2458C54.2294 31.3233 54.2294 31.4008 54.2294 31.4783C54.2294 31.5868 54.1984 31.6023 54.1984 31.7108C54.1984 31.7418 54.2294 31.9433 54.2294 31.9743C54.2604 32.0983 54.3534 32.2378 54.4619 32.2378C54.5704 32.2378 54.5859 32.1293 54.6479 32.1138C54.7564 31.9898 54.6789 31.7573 54.7564 31.5713C54.7564 31.5403 54.7874 31.4938 54.7874 31.4628V31.2769C54.6789 31.1684 54.7874 31.1684 54.8649 31.1374ZM51.3154 34.4078C51.1914 34.3613 51.0829 34.3303 50.9589 34.2993C50.8504 34.2993 50.6954 34.3303 50.6489 34.4078C50.5404 34.4543 50.4939 34.5628 50.5404 34.6713C50.5404 34.7798 50.6954 34.9348 50.8039 34.9813C50.9279 35.0588 51.0829 35.1053 51.2379 35.1053C51.3154 35.1053 51.4239 35.1363 51.4704 35.2138C51.5944 35.2448 51.9044 35.3378 51.9044 35.1828C51.9044 35.0743 51.7959 34.9503 51.7804 34.8263C51.6874 34.6093 51.5014 34.4853 51.3154 34.4078ZM53.8574 30.0834C53.9659 30.0834 54.0434 29.9594 54.0899 29.8509C54.1674 29.7424 54.2139 29.6184 54.3224 29.6184C54.4774 29.5874 54.6014 29.5874 54.7564 29.6184C54.8803 29.5874 54.9423 29.2619 55.1128 29.2619C55.1593 29.2929 55.2213 29.3394 55.2368 29.3859C55.2678 29.4169 55.2678 29.5099 55.3608 29.5099C55.6243 29.5099 55.8568 29.4789 56.0893 29.4014C56.2133 29.3704 56.3218 29.2774 56.3528 29.1689C56.4613 29.0449 56.4613 28.7504 56.3218 28.7349C56.1978 28.7039 56.0583 28.8589 55.9033 28.9209C55.7173 28.9519 55.5623 28.8899 55.4383 28.7969C55.3298 28.6884 55.3143 28.6109 55.2058 28.6109C55.0818 28.6109 54.9734 28.6574 54.8959 28.7969C54.7874 28.9054 54.7099 29.0294 54.6324 29.0294C54.5239 29.0294 54.5239 28.9209 54.5084 28.9054L54.3844 28.7814V28.4869C54.3534 28.4094 54.2759 28.3784 54.2294 28.3784C54.1054 28.3784 53.8109 28.6419 53.7954 28.7349C53.8264 28.7349 53.8264 28.8434 53.8264 28.8899C53.8264 28.9674 53.9504 29.0139 53.9504 29.1224C53.9504 29.1689 53.9039 29.2309 53.8419 29.2464L53.7334 29.3549C53.6249 29.3859 53.5784 29.4789 53.5474 29.5874C53.5474 29.6184 53.5784 29.7734 53.5784 29.8199C53.6404 29.9284 53.7489 30.0834 53.8574 30.0834ZM65.0481 40.0342C65.0791 40.1427 65.1721 40.2667 65.2806 40.2667C65.3271 40.2667 65.3891 40.2667 65.4046 40.2357C65.5286 40.1272 65.5131 40.1117 65.4046 39.9722C65.3736 39.9412 65.3736 39.8482 65.2961 39.8482C65.2651 39.7397 65.0326 39.6157 64.9396 39.6622C64.8312 39.7397 64.9086 39.8482 64.9396 39.9257C64.9861 39.9257 64.9861 39.9567 65.0481 40.0342ZM66.8461 38.8717C67.0786 38.8717 67.2646 38.9027 67.2646 38.7477C67.2646 38.6392 67.1561 38.6237 67.1406 38.5152C67.0321 38.4067 67.0166 38.3292 66.9081 38.3292C66.7996 38.3292 66.7841 38.3602 66.7221 38.4532C66.7221 38.5307 66.7221 38.6082 66.7531 38.6857C66.7686 38.7477 66.7996 38.7942 66.8461 38.8717ZM65.7611 38.5307C65.8696 38.6547 65.9161 38.8407 65.8851 38.9957C65.8541 39.1042 65.7611 39.2282 65.8851 39.3057C65.9936 39.3057 66.0091 39.1972 66.0401 39.1817C66.1486 39.0732 66.2261 38.9492 66.2726 38.8252C66.3036 38.5152 66.1641 38.2052 65.9161 38.0192C65.7611 37.8332 65.4821 37.7557 65.4511 37.4767C65.4511 37.3682 65.4511 37.2907 65.3426 37.2442H65.3271C65.2496 37.3217 65.1721 37.4302 65.0946 37.5077C65.0636 37.6162 64.9706 37.7402 64.9706 37.8177C64.9706 37.8952 65.0791 37.9417 65.0946 38.0037C65.2186 38.1432 65.6061 38.2827 65.7611 38.5307ZM61.5762 35.4618C61.4987 35.5858 61.4677 35.7408 61.4677 35.8958C61.5142 36.0043 61.5917 36.0508 61.7002 36.0198C61.7777 35.9733 61.8552 35.9113 61.9327 35.8338C61.9637 35.8028 61.9637 35.7253 62.0412 35.6478C62.0877 35.6013 62.1187 35.5393 62.1497 35.4618C62.1807 35.4308 62.2582 35.1983 62.1807 35.1518C62.1807 35.0278 62.0257 34.9658 61.9172 34.9658C61.7312 35.1518 61.6072 35.2758 61.5762 35.4618ZM60.8477 50.264C60.8167 50.14 60.6152 50.078 60.4137 50.1555C60.2587 50.233 60.1502 50.388 60.1812 50.574C60.2587 50.729 60.4447 50.8065 60.5997 50.729C60.5997 50.729 60.6307 50.729 60.6307 50.698C60.8477 50.574 60.9562 50.326 60.8477 50.264ZM60.8477 50.9925C60.6152 51.101 60.5377 51.3024 60.6152 51.4264C60.6927 51.5504 60.9252 51.6124 61.1577 51.5349C61.3127 51.4264 61.4677 51.2714 61.4212 51.1165C61.2972 50.9615 61.0647 50.946 60.8477 50.9925ZM64.3662 47.0555C64.1802 47.1795 64.1027 47.5205 64.4747 47.908C64.7072 48.218 65.1256 48.3265 65.4511 48.1405L65.4821 48.1095C65.6371 47.9855 65.7146 47.6755 65.3581 47.288C64.9706 46.885 64.4902 46.9625 64.3662 47.0555ZM44.1546 40.2667C43.9996 40.2977 43.8756 40.3442 43.7361 40.4217C43.6276 40.4527 43.5501 40.4682 43.4726 40.5302C43.3641 40.6542 43.3641 40.8712 43.4726 40.9952C43.5811 41.1192 43.7361 41.1037 43.8911 40.9952L44.0151 40.8712C44.0461 40.8402 44.1236 40.8402 44.1391 40.7627C44.1701 40.6852 44.3716 40.5767 44.3716 40.4992C44.3871 40.3907 44.2166 40.2667 44.1546 40.2667ZM61.3747 33.3383C61.4987 33.3693 61.7312 33.2143 61.7622 33.1523C61.7932 33.0903 61.8707 33.0283 61.8862 32.9973C61.9172 32.9663 62.0102 32.8888 62.0102 32.8113C62.0102 32.7028 61.9792 32.6253 61.9017 32.5788C61.8707 32.5478 61.7777 32.5788 61.6692 32.5788C61.4367 32.5788 61.4367 32.6098 61.3592 32.8113C61.3282 32.9198 61.2507 32.9973 61.2507 33.0438C61.2662 33.1058 61.2662 33.3383 61.3747 33.3383ZM62.5062 37.8332C62.6147 37.8022 62.6147 37.6472 62.6922 37.6007C62.7697 37.5232 62.8782 37.4922 62.9557 37.4922H63.1107C63.2192 37.4612 63.2347 37.3062 63.2657 37.2287C63.2967 37.1202 63.3897 36.9962 63.3897 36.9187C63.3897 36.8412 63.2657 36.7947 63.1262 36.8102C63.0487 36.8412 62.9712 36.8412 62.8937 36.8412C62.7852 36.8722 62.7077 36.8722 62.6612 36.9497L62.5062 37.1357C62.3822 37.2597 62.2737 37.4147 62.1962 37.5697C62.1652 37.6782 62.0877 37.7247 62.0722 37.8332C62.2272 37.9107 62.3822 37.9107 62.5062 37.8332ZM60.8012 34.1753C60.7702 34.1753 60.6772 34.2838 60.6462 34.2838C60.5377 34.2528 60.6462 33.8653 60.6152 33.7413C60.6152 33.7103 60.4912 33.6173 60.4292 33.6328C60.3207 33.7413 60.3052 33.8963 60.1967 34.0513C60.1502 34.1753 60.0417 34.2838 59.9333 34.3613L59.8093 34.4853C59.7783 34.5163 59.6853 34.5938 59.6853 34.6093C59.6853 34.7178 59.7163 34.7643 59.7163 34.8728C59.7163 34.9813 59.6853 35.0588 59.7163 35.1363C59.8402 35.2913 60.0262 35.1053 60.1347 35.0123C60.2432 34.9038 60.2587 34.7798 60.3982 34.7798C60.5377 34.7798 60.6617 34.8883 60.8322 34.8883C60.9407 34.8883 61.0182 34.7798 61.0957 34.7643C61.2042 34.7333 61.2507 34.6403 61.3282 34.6093C61.4057 34.5783 61.4367 34.5783 61.4522 34.5783C61.6382 34.4698 61.8087 34.4233 62.0257 34.3923C62.1497 34.3923 62.3822 34.3613 62.3822 34.2373C62.3822 34.2063 62.2737 34.1133 62.2582 34.0513C62.1342 34.0203 62.0257 34.0048 61.9017 34.0203C61.7157 34.0203 61.5452 34.0203 61.3592 34.0513C61.2507 34.0978 61.1577 34.1288 61.0492 34.1598C60.9252 34.0978 60.8322 34.0978 60.8012 34.1753ZM64.7537 36.4382C64.7227 36.3297 64.6452 36.1748 64.4902 36.1748C64.3352 36.1748 64.3352 36.3607 64.2577 36.4382C64.1802 36.5467 64.0252 36.6242 64.0252 36.7017C64.0252 36.7327 64.1337 36.8102 64.1492 36.8257C64.2732 36.8567 64.5057 36.9497 64.6142 36.9342C64.6452 36.9342 64.7692 36.9032 64.7692 36.8102C64.7692 36.7017 64.7382 36.6552 64.7382 36.5777C64.7847 36.5777 64.7537 36.5467 64.7537 36.4382ZM62.9247 33.9428H63.0487C63.1572 33.9428 63.1727 33.9738 63.2812 33.9738C63.4052 33.9738 63.5447 34.0203 63.6377 34.0978C63.7617 34.2063 63.8702 34.2218 63.9012 34.3613C63.9322 34.3923 63.9322 34.4853 64.0097 34.5938C64.0407 34.6713 64.0562 34.7488 64.1182 34.8263C64.2267 35.0588 64.2422 35.2913 64.3507 35.4928C64.3817 35.6013 64.4747 35.6788 64.5832 35.7253C64.6142 35.7563 64.8157 35.8338 64.8467 35.7563C64.9552 35.7253 64.9551 35.5238 64.8776 35.4463C64.8466 35.3223 64.7537 35.2138 64.7537 35.0898C64.7537 34.9658 64.8622 34.8573 64.8622 34.7333C64.8622 34.6093 64.7382 34.5473 64.6297 34.4698C64.5987 34.4388 64.5987 34.3613 64.5212 34.3458C64.4437 34.3148 64.4902 34.2373 64.4127 34.2218C64.3352 34.1443 64.2577 34.0668 64.1802 33.9893C64.1492 33.9583 64.0717 33.9583 64.0562 33.8808C63.9477 33.7723 63.7927 33.7258 63.6377 33.6948C63.3742 33.6638 63.0952 33.6638 62.8317 33.6948C62.6147 33.7568 62.7852 33.9428 62.9247 33.9428ZM62.9247 35.6168C62.8937 35.6478 62.8007 35.7408 62.8007 35.7718C62.8007 35.8803 62.9247 35.8028 63.0332 35.8028H63.2657C63.3742 35.8028 63.3897 35.8338 63.4982 35.8338C63.6067 35.8338 63.6067 35.6013 63.6067 35.4773V35.2913C63.5757 35.1053 63.5292 34.9348 63.4207 34.7488C63.3122 34.6248 63.2657 34.4853 63.1572 34.6248C63.1572 34.8573 63.2657 34.9813 63.1882 35.1983C63.1572 35.3843 63.0487 35.5083 62.9247 35.6168ZM52.3539 31.7108C52.3229 31.7573 52.3229 31.8193 52.3229 31.8968C52.2919 32.2068 52.4469 32.5943 52.6794 32.6253C52.9119 32.6563 52.9119 32.3928 52.8344 32.2688C52.7569 32.1448 52.7104 32.0363 52.7104 31.9588C52.7104 31.8348 52.8964 31.8503 52.8964 31.6953C52.8964 31.5093 52.6329 31.4318 52.4779 31.4628C52.4004 31.4318 52.4004 31.5248 52.3539 31.7108ZM60.4602 41.0882C60.3362 41.1192 60.0417 41.3516 60.1037 41.5066C60.1502 41.6306 60.2897 41.6616 60.3672 41.6616C60.5997 41.6616 60.6772 41.5376 60.7857 41.3981C60.8167 41.2896 60.8942 41.2741 60.8942 41.1656C60.7702 41.0727 60.6152 41.0417 60.4602 41.0882ZM60.1347 40.0807C60.1037 39.9257 60.0107 39.8482 59.9023 39.7242C59.7938 39.6002 59.7783 39.5382 59.6388 39.5382C59.5148 39.5382 59.4838 39.6467 59.4063 39.7242C59.3753 39.8017 59.3753 39.8792 59.3753 39.9567C59.3753 40.0807 59.5613 40.1427 59.6388 40.2202C59.7473 40.3287 59.8247 40.4527 59.9487 40.4527C60.0727 40.4527 60.1347 40.3442 60.1812 40.2977C60.1502 40.2202 60.1502 40.1427 60.1347 40.0807ZM60.6927 37.7557C60.6152 37.7092 60.5377 37.6472 60.4602 37.6317C60.4137 37.5542 60.3052 37.5077 60.2277 37.5077C60.0417 37.4767 59.8712 37.4612 59.6853 37.4767C59.5613 37.4767 59.4528 37.4767 59.3288 37.5077C59.1738 37.5387 59.0653 37.5387 58.9723 37.6937C58.8638 37.8177 58.8483 37.8487 58.7398 37.9572C58.6623 38.0037 58.5848 38.0657 58.5073 38.0812C58.4608 38.1277 58.3988 38.1897 58.3833 38.2672C58.3523 38.2982 58.3523 38.3912 58.2748 38.4222C58.2438 38.5307 58.1508 38.5462 58.0423 38.6082C57.9338 38.6392 57.8873 38.7322 57.8098 38.7942C57.7013 38.9182 57.6858 39.0267 57.5773 39.1042C57.4688 39.1817 57.3138 39.3367 57.3138 39.4142C57.3138 39.4917 57.3448 39.5227 57.4378 39.5227C57.4688 39.5227 57.5618 39.4917 57.6238 39.4917C57.7478 39.4452 57.8563 39.4142 57.9803 39.3832C58.0113 39.3832 58.4453 39.3522 58.5228 39.3522C58.6003 39.3212 58.6468 39.2437 58.7088 39.1662C58.7398 39.0577 58.7398 38.9647 58.7088 38.8562C58.7553 38.7477 58.8173 38.6547 58.8948 38.5462C59.0033 38.4997 59.0963 38.4687 59.2048 38.4377C59.2823 38.4687 59.3598 38.4687 59.4373 38.4687C59.5458 38.4687 59.5613 38.3137 59.6233 38.2052C59.6543 38.0967 59.7318 37.9727 59.8558 37.9727C59.8868 37.9727 59.9797 38.0037 59.9797 38.0812C60.0882 38.2052 60.0882 38.4377 60.2122 38.5152C60.3207 38.5462 60.4137 38.5462 60.5222 38.5152C60.6772 38.4687 60.8322 38.3912 60.9407 38.2517C61.0182 38.1742 61.0182 38.0657 60.9717 37.9882C60.9562 37.8177 60.8012 37.8177 60.6927 37.7557ZM56.8953 43.4441C56.8643 43.2891 56.8488 43.1341 56.7868 42.9791V41.4601C56.8178 41.2742 57.0193 41.0417 56.9108 40.9177C56.8023 40.7937 56.6473 40.8867 56.4923 40.8867C56.0583 40.9177 55.6398 40.8557 55.2213 40.7627H54.9888C54.8029 40.7627 54.6324 40.7627 54.6324 40.8867C54.6324 41.0107 54.9888 41.1192 55.0973 41.1502C55.2058 41.1812 56.0738 41.4136 56.1048 41.4601C56.1358 41.4911 56.2288 41.5686 56.2288 41.6461C56.2288 41.7236 56.3373 43.1496 56.3528 43.3201C56.3838 43.5216 56.4303 43.7386 56.5078 43.9091C56.5853 44.1726 56.7093 44.4051 56.8643 44.6376C56.9728 44.7461 57.0968 44.9011 57.1743 44.7926C57.2828 44.7616 57.2053 44.6686 57.1743 44.5601C57.2053 44.4826 56.8953 43.5526 56.8953 43.4441ZM55.5623 43.3201V42.9016C55.5623 42.7776 55.5933 42.3281 55.5933 42.2351C55.5933 42.1421 55.5623 42.0026 55.4073 42.0026C55.2988 42.1266 55.2213 42.2816 55.2213 42.4366C55.2213 42.4831 55.2213 42.5451 55.1903 42.5606C55.1903 42.5916 55.1593 42.8241 55.1593 42.8706C55.1593 43.0566 55.1903 43.6766 55.1903 43.8006C55.1903 43.9246 55.2368 44.0641 55.2988 44.1571C55.3298 44.2811 55.5313 44.4206 55.6088 44.3896C55.6398 44.3896 55.6398 44.3896 55.6398 44.3586C55.6708 44.2501 55.6398 44.2346 55.6088 44.1261C55.6398 43.8781 55.6088 43.5991 55.5623 43.3201ZM54.9113 38.3757C54.9423 38.2672 54.9424 38.1432 55.0198 38.0657C55.0198 38.0347 55.1283 37.5232 55.1283 37.4922C55.1748 37.2907 55.2833 37.0737 55.3918 36.9032C55.4228 36.7947 55.5158 36.7172 55.5468 36.5932C55.5778 36.4692 55.5158 36.3607 55.5158 36.2832C55.4848 36.2057 55.4383 36.1593 55.3918 36.0973C55.2833 35.9423 55.2058 35.7873 55.1593 35.6323V35.2448C55.1593 35.1983 55.1593 35.1363 55.1283 35.0588C55.1283 34.9503 55.1283 34.9348 55.0198 34.8728H54.9113C54.8029 34.9193 54.7099 34.9968 54.6479 35.1053C54.5239 35.2913 54.4929 35.5393 54.2294 35.5703C54.1209 35.6013 54.0279 35.6013 53.9194 35.5703C53.8109 35.6013 53.7954 35.8338 53.8109 35.9268C53.8419 36.0353 53.9349 36.0353 54.0434 36.0508C54.1519 36.0818 54.2294 36.0973 54.3069 36.1593C54.3534 36.2368 54.4154 36.3142 54.4309 36.3917C54.4619 36.5002 54.4619 36.5932 54.3999 36.7017C54.3534 36.8102 54.3224 36.9032 54.2914 37.0117C54.3224 37.1202 54.4154 37.1977 54.4154 37.2752C54.4154 37.3837 54.1829 37.5852 54.1054 37.5852L53.7954 37.5542C53.6094 37.5232 53.2529 37.0892 53.2064 37.0117C53.1289 36.9342 53.0979 36.8877 53.0824 36.8257C53.0514 36.7947 52.8189 36.6707 52.7724 36.5932C52.6639 36.4847 52.5399 36.3607 52.4159 36.3607C52.2919 36.3607 52.2609 36.4847 52.1834 36.4847C51.9974 36.5932 51.7184 36.5157 51.7184 36.7482C51.7184 36.8722 51.9509 36.9342 52.0284 36.9807C52.1524 37.0117 52.3074 37.0582 52.4469 37.1047C52.4779 37.1047 52.8809 37.5232 53.0204 37.5697C53.1444 37.6472 53.2994 37.6937 53.4544 37.7557C53.5629 37.7867 53.5784 37.8642 53.6869 37.8797C53.8109 37.9882 54.2604 38.2982 54.2759 38.3137C54.4309 38.4377 54.5084 38.5772 54.6634 38.6237C54.8339 38.6702 54.8648 38.5617 54.9113 38.3757ZM57.7788 36.8567C57.8563 36.7017 57.9648 36.5777 58.0423 36.4227C58.0733 36.3143 58.1508 36.2678 58.1508 36.1903V36.0663C58.1508 35.9578 58.2593 35.7098 58.1508 35.6323C58.1198 35.6013 58.0733 35.6013 58.0423 35.6013C57.9338 35.6478 57.8408 35.7098 57.7323 35.7253C57.6238 35.7563 57.5308 35.8028 57.4688 35.9113C57.4378 36.0353 57.4378 36.1438 57.4688 36.2678C57.4688 36.3762 57.4378 36.4692 57.3603 36.5777C57.2518 36.6552 57.1278 36.7327 57.0038 36.7637C56.8798 36.7947 56.7713 36.8722 56.6938 36.9962V37.3372C56.6628 37.4612 56.5853 37.5697 56.4613 37.6007C56.4303 37.6317 56.1978 37.7092 56.1513 37.8332C56.1513 37.8642 56.1203 38.2672 56.1203 38.4222C56.1203 38.5772 56.1513 38.8872 56.3063 38.8872C56.5853 38.6547 56.8178 38.3757 57.0348 38.0657C57.0658 38.0347 57.0658 37.9572 57.1433 37.9417C57.2208 37.9107 57.2673 37.8332 57.2983 37.7867C57.3448 37.6317 57.3758 37.5077 57.4068 37.3527C57.4378 37.2442 57.6393 37.1667 57.7168 37.0892C57.6703 36.9807 57.7478 36.8877 57.7788 36.8567ZM61.6847 37.0582C61.7622 36.9497 61.8397 36.8257 61.8707 36.7017C61.8397 36.6707 61.8397 36.6707 61.7467 36.6707C61.6537 36.6707 61.5607 36.7017 61.4832 36.7792C61.2507 36.8102 61.1732 36.9032 60.9407 37.0117C60.8322 37.0427 60.7082 37.1202 60.7082 37.1977C60.7082 37.2752 60.9407 37.3062 61.0182 37.3217C61.0957 37.3527 61.2042 37.4457 61.2817 37.4457C61.4522 37.3992 61.6072 37.2442 61.6847 37.0582ZM67.6831 41.2431C67.5746 41.2431 67.5281 41.2741 67.4196 41.2741C67.3111 41.2741 67.2336 41.3206 67.1871 41.3981C67.1871 41.5066 67.3111 41.7081 67.4196 41.7081C67.4971 41.7081 67.5746 41.7081 67.6521 41.6771C67.7606 41.6771 67.7761 41.6461 67.8381 41.5531C67.8691 41.4446 67.8691 41.3516 67.8381 41.2431C67.8071 41.2431 67.6831 41.2431 67.6831 41.2431ZM65.7611 40.9177C65.5751 40.9177 65.4511 41.1037 65.3271 41.1502C65.2806 41.1967 65.1721 41.2586 65.0946 41.2586C64.9706 41.2586 64.8156 41.2277 64.6762 41.1502C64.6452 41.1502 64.5522 41.1192 64.4902 41.1192C64.3817 41.1192 64.3662 41.0882 64.2577 41.0882C64.2267 41.0882 64.1802 41.1192 64.1492 41.1192C64.0407 41.1502 63.8857 41.2432 63.9167 41.3826C63.9477 41.5221 64.0717 41.4136 64.2267 41.4136C64.3042 41.4446 64.3817 41.4446 64.4592 41.4446C64.6917 41.5531 64.9242 41.6306 65.1566 41.6771C65.2806 41.7236 65.4356 41.6461 65.5131 41.5531C65.6216 41.4291 65.7456 41.3206 65.9006 41.2896C66.0246 41.2587 66.1331 41.2586 66.1331 41.1656C66.3036 41.0417 65.9781 40.9177 65.7611 40.9177ZM62.1497 39.9877C62.1497 39.9102 62.1032 39.8327 61.9947 39.8017H61.9637C61.8862 39.8327 61.8397 39.8482 61.7777 39.9102C61.6692 39.9877 61.5917 40.0652 61.5142 40.1427C61.4057 40.2512 61.3282 40.3287 61.3902 40.4062C61.4212 40.6697 61.8242 40.4062 61.9327 40.3752C61.9947 40.2357 62.1497 40.1117 62.1497 39.9877ZM51.0364 31.1684C51.0674 31.2768 51.1449 31.2923 51.1604 31.4008C51.1759 31.5093 51.2379 31.5868 51.2844 31.6643C51.3619 31.7418 51.4859 31.7418 51.5634 31.6333C51.5634 31.6333 51.5634 31.6333 51.5944 31.6023C51.6254 31.4473 51.3619 31.1839 51.3619 31.0599C51.3619 30.9359 51.4859 30.9514 51.5479 30.8274C51.5944 30.7034 51.4394 30.5174 51.5169 30.3934C51.5169 30.2849 51.6409 30.2694 51.7804 30.2074C51.9819 30.1299 52.1679 30.0214 52.3539 29.8974C52.4624 29.8664 52.5864 29.7734 52.5864 29.6649C52.5864 29.6339 52.5554 29.4014 52.5554 29.3549C52.5554 29.3084 52.4469 29.2464 52.4314 29.2464C52.3229 29.2464 52.2764 29.3704 52.1989 29.4014C52.0439 29.5874 51.8889 29.8664 51.5324 29.8354C51.4239 29.8354 51.4084 29.8044 51.2999 29.8044C51.1914 29.8044 51.1449 29.9594 51.0674 30.0679C51.0364 30.0989 51.0364 30.1919 50.9589 30.2539C50.9279 30.3004 50.9279 30.3624 50.9279 30.4399C50.9279 30.5484 50.9744 30.6414 51.0364 30.7499C50.9589 30.9359 50.9899 31.0599 51.0364 31.1684ZM62.8162 40.9332C62.6612 40.9642 62.4597 41.0572 62.2737 41.1192H61.9637C61.8862 41.1502 61.8087 41.1967 61.7777 41.2741C61.7777 41.3826 61.8862 41.3826 61.9637 41.3826H62.2272C62.2737 41.4136 62.3357 41.4136 62.3822 41.4136C62.4132 41.4136 62.5062 41.4136 62.5682 41.4446C62.6922 41.4756 62.7542 41.7081 62.9867 41.6771C63.0177 41.6771 63.1107 41.5531 63.1727 41.4446C63.1727 41.4136 63.1727 41.3206 63.2037 41.2586C63.2347 41.1811 63.2347 41.1037 63.2347 41.0262C63.2502 41.0107 62.9402 40.9332 62.8162 40.9332ZM64.0252 39.9102C63.9167 39.7087 63.8237 39.5227 63.6687 39.3677C63.5912 39.2902 63.5137 39.2437 63.4052 39.2437C63.2967 39.2127 63.2037 39.2127 63.0952 39.2127C63.0177 39.2127 62.9712 39.2592 62.9712 39.3367C62.9712 39.3832 63.0177 39.4452 63.0797 39.4607L63.1882 39.5692C63.2657 39.6467 63.3432 39.6932 63.4207 39.7242C63.4982 39.8482 63.5447 39.9877 63.5757 40.1427C63.6067 40.2512 63.7617 40.4062 63.8392 40.4062C63.9477 40.4062 64.0717 40.1737 64.0717 40.1427C64.0872 40.0652 64.0562 39.9567 64.0252 39.9102ZM46.2005 48.559C45.937 48.8225 45.503 48.869 45.069 48.373C44.8831 48.094 44.7901 47.753 44.7126 47.443L45.1465 47.412C45.1775 47.6445 45.2705 47.877 45.379 48.0785C45.534 48.311 45.7355 48.342 45.813 48.2025C45.8905 48.0785 45.844 47.8925 45.7045 47.629C45.5185 47.2105 45.472 46.9315 45.7045 46.6525C46.0145 46.389 46.4795 46.42 46.7585 46.73C46.7895 46.761 46.7895 46.761 46.805 46.7765C46.96 47.04 47.0685 47.319 47.115 47.598L46.681 47.629C46.65 47.443 46.6035 47.2725 46.495 47.0865C46.371 46.854 46.1385 46.854 46.061 46.9625C45.9835 47.071 46.061 47.2725 46.185 47.5515C46.433 48.0165 46.464 48.3265 46.2005 48.559ZM46.464 49.83L47.983 48.0475L48.3395 48.3575L46.836 50.14C46.8205 50.14 46.464 49.83 46.464 49.83ZM49.688 51.9689L49.1455 51.7054C49.1455 51.7054 49.1455 50.0315 49.1765 49.768C49.0525 50.0315 48.8665 50.3415 48.7115 50.698L48.355 51.2869L47.921 51.0544L49.13 48.993L49.7035 49.303C49.7035 49.303 49.7035 50.884 49.6725 51.1319C49.7965 50.8685 49.9359 50.5585 50.1064 50.2485L50.4629 49.6595L50.8969 49.892L49.688 51.9689ZM53.0049 51.3334C52.8499 51.07 52.5864 50.946 52.3074 50.915C51.9509 50.884 51.6409 51.1785 51.6099 51.5349C51.6099 51.5659 51.6099 51.5814 51.6099 51.5814C51.5634 51.9689 51.8114 52.3564 52.2299 52.4029C52.2609 52.4029 52.2764 52.4029 52.3384 52.4029C52.4934 52.4029 52.6949 52.3719 52.7724 52.2789L53.0049 52.6974C52.8034 52.8524 52.5399 52.8989 52.2764 52.8834C51.6099 52.8524 51.1139 52.2944 51.1449 51.6124C51.1759 50.9305 51.7339 50.45 52.4159 50.481C52.4469 50.481 52.4624 50.481 52.4624 50.481C52.8499 50.5275 53.1909 50.76 53.3924 51.07C53.3924 51.07 53.0049 51.3334 53.0049 51.3334ZM55.6863 51.9224V52.3409H54.5549V52.9144L55.9188 52.9454V53.3639L54.1054 53.2864L54.2139 51.008L55.9188 51.039V51.4574H54.6479V51.9999C54.6479 51.9534 55.6863 51.9224 55.6863 51.9224ZM58.9103 52.8059L58.3678 51.0235L58.0113 51.256L57.8873 50.8995L58.3523 50.5895L58.7708 50.4655L59.4373 52.6664L58.9103 52.8059ZM61.2662 51.9224C60.7237 52.1549 60.3362 51.9534 60.1812 51.6899C60.0727 51.4574 60.1347 51.194 60.3052 51.0235C60.0727 51.0235 59.8712 50.915 59.7627 50.7135C59.5768 50.357 59.7937 50.016 60.2277 49.83C60.5377 49.6285 60.9717 49.706 61.1887 50.0315L61.2197 50.0625C61.2972 50.264 61.2662 50.481 61.1112 50.636C61.3747 50.605 61.6227 50.7445 61.7002 50.9925C61.9637 51.3334 61.7622 51.6899 61.2662 51.9224ZM62.9402 50.946L62.7077 50.636L62.8162 50.2175C62.9402 49.551 63.1262 49.1325 62.9402 48.9465C62.8317 48.8225 62.6302 48.7915 62.4752 48.9C62.3512 49.024 62.2737 49.179 62.2427 49.365H61.8242C61.7777 49.024 61.9327 48.714 62.1807 48.5435C62.4597 48.2645 62.9247 48.2645 63.2192 48.5125C63.2502 48.5435 63.2502 48.5435 63.2657 48.559C63.5757 48.9155 63.4517 49.4115 63.3742 49.83L63.3432 50.0935L64.0717 49.52L64.3352 49.8765L62.9402 50.946ZM65.6371 48.5125C65.2496 48.9 64.5522 48.776 64.0872 48.28C63.6532 47.8925 63.6222 47.2415 63.9787 46.8075C64.0097 46.7765 64.0252 46.761 64.0252 46.761C64.4902 46.4045 65.1876 46.482 65.5441 46.947C65.5751 46.978 65.5751 46.978 65.5906 46.9935C66.1331 47.474 66.1331 48.094 65.6371 48.5125ZM68.7836 41.8941C68.6596 41.8631 68.5511 41.8631 68.4271 41.8941C68.3186 41.9406 68.2411 42.0181 68.1946 42.1266C68.1636 42.2351 68.0706 42.2816 67.9621 42.3591C67.7761 42.4056 67.5746 42.4366 67.3886 42.4676H67.1561C66.9701 42.3591 66.9701 42.1111 66.7221 42.1111C66.6136 42.1111 66.5361 42.2196 66.4586 42.2351C66.3501 42.2661 66.2261 42.2351 66.1951 42.3591C66.2261 42.4676 66.2261 42.4676 66.3191 42.5451C66.3501 42.5761 66.4431 42.6536 66.4431 42.7001C66.4431 42.7466 66.2106 42.8086 66.1331 42.8241C66.0091 42.8241 65.5906 42.8551 65.5596 42.8551C65.3736 42.8861 65.2031 42.8551 65.0171 42.7466C64.8931 42.6381 64.7846 42.4831 64.5987 42.3281C64.4437 42.2041 64.2422 42.1421 64.0252 42.1421C63.8392 42.1731 63.6842 42.2196 63.5602 42.3281C63.4362 42.4366 63.3742 42.5916 63.2502 42.6846C63.1727 42.7621 63.0642 42.8086 62.9402 42.8086C62.8627 42.8086 62.7852 42.8086 62.7077 42.7776C62.5992 42.7001 62.5062 42.5916 62.4442 42.4676C62.4132 42.3591 62.2582 42.2041 62.1342 42.2041C62.0102 42.2351 61.9017 42.3126 61.8707 42.4366C61.7622 42.5451 61.7467 42.6691 61.6072 42.6691C61.4987 42.6691 61.4057 42.5916 61.3437 42.4831C61.2972 42.3591 61.2197 42.2816 61.1112 42.2196C60.9562 42.1886 60.8322 42.1886 60.6772 42.1886C60.5532 42.1886 59.9797 42.3746 59.9487 42.3746C59.9177 42.3746 59.6853 42.3436 59.6388 42.2661C59.5303 42.2351 59.5148 42.1421 59.4063 42.0336C59.3753 41.9251 59.2823 41.8786 59.2203 41.7701C59.1118 41.6151 59.0963 41.3826 58.9878 41.1811C58.9568 41.0727 58.8793 41.0572 58.8018 40.9487C58.6778 40.8247 58.4453 40.7627 58.2593 40.6852C58.1508 40.6542 58.1043 40.5612 57.9493 40.5612C57.7943 40.5612 57.6858 40.7472 57.6393 40.9177C57.5618 41.1812 57.5153 41.4601 57.5308 41.7236C57.5308 41.9561 57.5618 42.1886 57.6393 42.3901C57.6703 42.6226 57.6858 42.8241 57.7478 43.0566C57.7788 43.2581 57.8253 43.4751 57.8718 43.6456C57.9493 44.0021 58.0733 44.3741 58.2593 44.6996C58.4918 44.9011 58.7708 45.0406 59.0653 45.1181C59.2203 45.2266 60.0728 45.5831 60.1967 45.6916C60.2277 45.7226 60.3517 45.8001 60.3207 45.8776C60.2897 45.9551 59.9333 45.8776 59.8558 45.8776C59.2358 45.6761 58.5693 45.5986 57.9183 45.6451C57.7943 45.6451 57.6548 45.6761 57.6083 45.7691C57.6083 45.8466 57.6393 45.9551 57.7168 46.0016C57.8253 46.1256 57.8718 46.2805 57.9028 46.4355C57.9028 46.544 57.9338 46.668 57.8718 46.699C57.7943 46.73 57.7478 46.668 57.6083 46.5905C57.4843 46.513 56.4768 45.9241 55.4693 45.9241C54.7254 45.9706 53.9659 46.203 53.3304 46.5905C53.2219 46.6215 53.1444 46.7145 53.0669 46.699C52.9584 46.668 53.0359 46.575 53.0669 46.4665C53.0979 46.3115 53.1754 46.1566 53.2529 46.0016C53.2994 45.9241 53.3304 45.8466 53.3614 45.7691C53.3304 45.6451 53.0049 45.6451 52.9274 45.6451C52.5089 45.6141 52.1989 45.6451 51.7959 45.6451C51.6874 45.6451 50.9899 45.7536 50.9124 45.7536C50.7884 45.7536 50.6489 45.8621 50.6024 45.7536C50.5714 45.7226 50.7109 45.6296 50.7264 45.5676C50.8504 45.4591 50.9899 45.3816 51.1139 45.3351C51.2224 45.3041 51.5479 45.1491 51.6874 45.1026C51.7959 45.0561 51.9199 44.9941 52.0439 44.9786C52.3074 44.9011 52.5089 44.7771 52.7104 44.6221C52.7879 44.5136 52.8654 44.3896 52.9429 44.2656C52.9739 44.1416 53.0514 44.0021 53.0669 43.8471C53.0979 43.7231 53.1754 43.5836 53.1909 43.4286C53.2064 43.2736 53.2374 43.1496 53.2994 42.9946C53.3304 42.6846 53.4079 42.4056 53.4234 42.0646C53.4544 41.9096 53.4699 41.7856 53.5319 41.6306C53.5629 41.4446 53.5629 41.2741 53.5319 41.0882C53.5319 40.9797 53.5009 40.9642 53.4234 40.8557C53.3459 40.7472 53.3924 40.6697 53.3149 40.6232C53.2684 40.5147 53.1599 40.4372 53.0514 40.4372C52.9429 40.4682 52.8499 40.5147 52.7414 40.5612C52.6329 40.5922 52.5864 40.6852 52.4314 40.6852C52.3539 40.6852 52.2764 40.6852 52.1989 40.7162C51.9974 40.7162 51.8114 40.7627 51.6254 40.8402C51.4394 40.9642 51.3464 41.1966 51.3929 41.4136C51.3929 41.5221 51.5014 41.5996 51.5789 41.6461C51.6564 41.7236 51.8114 41.7546 51.8114 41.8011C51.8114 41.8786 51.5014 42.0336 51.3929 42.0646C51.2689 42.1111 51.1294 42.1421 50.9744 42.1731C50.7884 42.1731 50.5869 42.1731 50.4009 42.1421C50.1684 42.1111 49.8585 42.0336 49.7035 42.1731C49.595 42.2816 49.5485 42.4056 49.5175 42.5296C49.4865 42.7156 49.3935 42.8396 49.2075 42.8861C49.0835 42.8861 48.8975 42.7776 48.7735 42.7776C48.6495 42.7776 48.51 42.8086 48.417 42.8861C48.293 42.9171 48.1845 43.0101 48.0605 43.0101C47.9365 43.0101 47.7505 42.8241 47.6265 42.7466C47.58 42.7001 47.5025 42.6381 47.4715 42.5916C47.425 42.5141 47.3165 42.4676 47.239 42.4676C47.115 42.4676 46.9755 42.5916 46.8825 42.7001C46.774 42.7311 46.619 42.8861 46.464 42.8861C46.34 42.8861 46.278 42.7776 46.2005 42.7776C46.092 42.7776 45.968 42.8861 45.844 42.8861C45.6115 42.8861 45.5805 42.5761 45.41 42.5296C45.3015 42.4986 45.1775 42.5606 45.1465 42.5296C44.9605 42.4211 45.1465 42.0646 45.1775 41.9406C45.2085 41.9096 45.286 41.8166 45.2085 41.7856C45.2085 41.6616 44.9451 41.5996 44.7901 41.5531C44.7591 41.5531 44.6661 41.5221 44.6041 41.5221C44.4956 41.5221 44.4181 41.6306 44.3406 41.6461C44.2321 41.6771 43.9221 41.8786 43.8756 41.9096C43.7206 42.0646 43.5191 42.1111 43.3021 42.0956C43.1936 42.0956 42.9456 41.8631 42.8681 41.8631C42.6821 41.8941 42.6821 42.1266 42.5116 42.1731C42.3101 42.2041 42.1241 42.1731 41.9381 42.0646C41.6746 41.8786 42.0466 41.7546 42.0466 41.4911C42.0466 41.3051 41.9226 41.1812 41.9226 41.0572C41.9226 40.9332 42.1551 40.7937 42.2326 40.6387C42.2636 40.6077 42.3411 40.2822 42.3566 40.2202C42.3876 40.1117 42.4806 40.1117 42.5891 40.0962C42.6976 40.0652 42.8216 40.0962 42.9456 40.0652C43.0696 40.0342 43.3021 39.9102 43.2556 39.8017C43.2556 39.6777 43.0231 39.6467 42.9456 39.6467C42.8216 39.6157 42.6356 39.5382 42.6356 39.4142C42.6666 39.3057 42.7131 39.2127 42.7596 39.1042C42.7906 38.9957 42.8061 38.9182 42.8681 38.8407C42.8991 38.7322 42.9921 38.6857 43.1006 38.6082C43.2091 38.5617 43.3021 38.4997 43.4106 38.4842C43.5346 38.4842 43.5656 38.6082 43.6741 38.7167C43.7826 38.8252 43.8291 39.0267 44.0926 38.9492C44.1701 38.9027 44.2166 38.7942 44.2166 38.7167C44.1856 38.5927 44.1856 38.4532 44.2166 38.2982C44.3251 38.1897 44.5266 38.1742 44.6816 38.0657C44.7126 38.0657 44.8056 38.0347 44.8676 38.0347C44.9761 38.0657 44.9916 38.2672 45.0226 38.3912C45.0535 38.5152 45.1311 38.7477 45.2085 38.7477C45.286 38.7477 45.3325 38.6392 45.3945 38.5617C45.472 38.4377 45.5805 38.2982 45.7045 38.2052C45.782 38.1742 45.8285 38.1277 45.8595 38.0192C45.906 37.9107 45.937 37.8177 45.968 37.7092C45.937 37.5542 45.7045 37.4767 45.534 37.4457C45.4255 37.4147 45.348 37.3992 45.2705 37.3372C45.0845 37.3062 44.9605 37.3062 44.9141 37.1047C44.8831 36.9962 44.8831 36.9032 44.9141 36.7947C44.9451 36.5622 44.9451 36.3607 45.1465 36.3297C45.224 36.2988 45.3325 36.2988 45.41 36.3297C45.5185 36.3297 45.565 36.2987 45.565 36.2057C45.565 36.0973 45.534 35.9733 45.534 35.8958C45.534 35.8183 45.41 35.7098 45.348 35.6323C45.317 35.5238 45.317 35.4308 45.348 35.3223C45.317 35.1673 45.0846 35.0123 45.1621 34.7333C45.2086 34.6248 45.348 34.5473 45.472 34.5473C45.5805 34.5473 45.6735 34.5473 45.782 34.5163C45.906 34.4078 45.906 34.2528 45.906 34.0823C45.906 33.8963 45.7975 33.6638 45.906 33.5088C45.937 33.4003 46.092 33.3848 46.216 33.3538C46.4485 33.2453 46.6345 33.0438 46.805 32.9353C46.8825 32.9353 46.991 32.9353 47.0685 32.9043C47.177 32.8733 47.2545 32.7958 47.332 32.7958C47.4405 32.7958 47.487 33.0593 47.5645 33.2143C47.642 33.3383 47.673 33.5708 47.797 33.6328C47.921 33.6638 48.2155 33.5088 48.2155 33.4003C48.2155 33.2918 48.1845 33.1678 48.1845 33.0438V32.8888C48.1845 32.8578 48.1535 32.7648 48.1535 32.7028C48.1845 32.5478 48.262 32.3928 48.386 32.2843C48.4945 32.2533 48.51 32.1758 48.6185 32.1603C48.6495 32.1293 48.7425 32.0518 48.7735 32.0363C48.851 31.9588 48.8975 31.8503 48.9595 31.7728C49.068 31.6643 49.192 31.6643 49.347 31.6488C49.471 31.6798 49.471 31.8348 49.5795 31.9123C49.657 32.0673 49.812 32.1758 49.967 32.1758C50.091 32.1758 50.153 31.9898 50.1994 31.8658C50.2769 31.6023 50.3079 31.3234 50.3079 31.0599C50.2769 30.9514 50.2304 30.8584 50.1839 30.7499C50.1064 30.5949 50.0754 30.4399 50.0754 30.2849C50.1064 30.1764 50.1994 30.1609 50.2304 30.0524C50.3389 30.0214 50.3544 29.9284 50.4629 29.8199C50.5714 29.7114 50.5869 29.2774 50.7729 29.2464C51.0054 29.1379 51.2069 29.3549 51.3619 29.2464C51.4704 29.2154 51.4859 29.0604 51.5479 28.9364C51.5944 28.8124 51.6719 28.6729 51.7804 28.5799C51.8579 28.5334 51.9354 28.4714 52.0129 28.4559C52.1214 28.4249 52.1989 28.4094 52.2764 28.3474C52.3074 28.3474 52.3074 28.3164 52.3849 28.3164C52.4934 28.2079 52.4934 28.0839 52.5399 28.0839C52.6639 28.0529 52.7724 28.0529 52.8964 28.0839H53.0824C53.1289 28.0839 53.1909 28.0839 53.2684 28.0529C53.3924 28.0219 53.4544 27.9289 53.5784 27.8204C53.7644 27.7119 53.9349 27.6964 54.1519 27.7119C54.1829 27.7119 54.2759 27.7429 54.3069 27.7429C54.3844 27.7739 54.4929 27.7739 54.5704 27.7429C54.7254 27.7119 54.8339 27.4794 54.9888 27.4329C55.1438 27.4019 55.3298 27.4639 55.4228 27.5569C55.5313 27.5879 55.5468 27.7429 55.6863 27.7429C55.8258 27.7429 55.9188 27.5569 55.9498 27.4794C56.0583 27.3554 56.0738 27.1694 56.2598 27.1694H56.4923C56.6163 27.1694 56.7558 27.2004 56.8488 27.2779C56.8798 27.2779 56.9728 27.3089 57.0038 27.3089C57.1278 27.3089 57.2363 27.1849 57.3138 27.1849C57.3913 27.1849 57.4378 27.1849 57.4688 27.2159C57.7013 27.4019 57.8563 27.6344 57.9338 27.9134C57.9648 28.0219 58.0888 28.0994 58.1663 28.1769C58.2438 28.2544 58.2903 28.3629 58.3523 28.4404C58.3833 28.4714 58.4763 28.5644 58.5383 28.5644H58.6933C58.7398 28.5954 58.8018 28.5954 58.8793 28.5954H59.1118C59.2358 28.6264 59.3443 28.7194 59.4683 28.7194C59.5768 28.6884 59.7008 28.6419 59.7783 28.5334C59.8868 28.4249 59.8868 28.2699 60.0107 28.2234C60.0882 28.2234 60.1657 28.2234 60.2432 28.2544C60.5532 28.4094 60.8167 28.5644 61.0957 28.7194C61.2042 28.8279 61.3282 28.9054 61.3592 28.9829C61.3902 29.1379 61.3902 29.2929 61.3592 29.4479C61.3902 29.6029 61.4367 29.7889 61.5452 29.9129C61.6227 30.0989 61.6692 30.2694 61.6692 30.4864C61.7002 30.6104 61.8552 30.7189 61.9327 30.8429C61.9637 30.8739 62.0412 30.9669 62.0567 31.0289C62.1342 31.1064 62.2117 31.2149 62.2892 31.2924C62.3202 31.4473 62.3357 31.5713 62.3977 31.7263C62.4287 31.8503 62.6612 31.8813 62.8317 31.9588C63.0177 32.0363 63.0952 32.0673 63.0952 32.1448C63.0952 32.2223 63.0952 32.2998 63.0642 32.3773C63.0332 32.5323 62.9557 32.6408 62.9402 32.8113C62.9402 32.9198 62.9092 32.9663 62.9092 33.0438C62.9402 33.2298 63.3277 33.0748 63.3742 33.0438C63.4517 33.0128 63.5602 32.9353 63.6067 32.9353C63.6842 32.8888 63.7927 32.8578 63.8702 32.9043C63.9942 32.9353 64.1337 33.1368 64.2577 33.2143C64.3042 33.2608 64.3817 33.3228 64.4437 33.4003C64.6452 33.5243 64.8776 33.6638 65.1101 33.7568C65.2961 33.7878 65.4511 33.8808 65.5751 33.9893C65.6991 34.0978 65.8851 34.1753 65.9316 34.3458C65.9781 34.5318 66.0091 34.7023 65.9626 34.8883C65.9161 35.0123 65.8386 35.1518 65.7301 35.2448C65.6216 35.3378 65.4666 35.3998 65.4666 35.5548C65.4666 35.7098 65.7766 35.8648 65.9006 35.9113C66.0246 35.9578 66.0866 36.0198 66.1641 36.0353C66.2726 36.0663 66.3501 36.1593 66.3966 36.2212C66.3656 36.3452 66.3191 36.4847 66.2726 36.5777C66.2416 36.7017 66.1486 36.8102 66.1486 36.9342C66.1486 37.0582 66.1486 37.1667 66.1796 37.1977C66.3036 37.3062 66.5361 37.1667 66.6136 37.0892C66.6601 37.0427 66.7221 36.9807 66.7996 36.9652C66.8461 36.9187 66.9546 36.8567 67.0321 36.8567C67.1561 36.8567 67.2181 37.0892 67.2181 37.2132C67.2181 37.4147 67.3266 37.6007 67.4506 37.7557C67.5591 37.8332 67.6831 37.8797 67.8071 37.8797C67.9311 37.9262 68.0706 38.0347 68.1171 38.1897C68.1481 38.2982 68.1636 38.3912 68.1481 38.4997V38.8562C68.1171 38.9647 68.0241 39.0112 67.9931 39.0887C67.9621 39.1662 67.8691 39.1197 67.7606 39.1972C67.5591 39.3057 67.3266 39.3522 67.0941 39.3832C66.9391 39.3832 66.7841 39.4297 66.6601 39.5072C66.5051 39.5382 66.3966 39.6622 66.3966 39.8172C66.3966 39.9722 66.7531 39.9412 66.8616 39.9722C66.9701 40.0032 66.9856 40.2822 67.1716 40.3287H67.4816C67.5591 40.3287 67.6056 40.2202 67.6366 40.2047C67.7141 40.1272 67.7916 40.0807 67.9001 40.0807C68.0086 40.0807 68.1016 40.1272 68.2101 40.1892C68.2876 40.2202 68.3961 40.2202 68.4736 40.2202C68.5976 40.2512 68.7061 40.4837 68.8301 40.5767C69.0626 40.7627 69.2486 40.8092 69.2641 41.0417C69.2641 41.0727 69.3726 41.3981 69.3726 41.5066C69.1246 41.7856 68.9386 41.8476 68.7836 41.8941ZM45.9215 39.5692C46.03 39.5692 46.03 39.4452 46.0455 39.3367C46.061 39.2282 46.0765 39.1042 46.154 39.0732C46.185 38.9492 46.3865 38.8407 46.4175 38.7632C46.526 38.6392 46.6035 38.4997 46.65 38.3447V38.0347C46.619 37.9107 46.5725 37.7712 46.464 37.6782C46.34 37.6782 46.3555 37.8022 46.3555 37.9417C46.3245 38.1432 46.247 38.3602 46.123 38.5307L45.8595 38.7942C45.7355 38.9182 45.596 39.0267 45.627 39.2592C45.689 39.4142 45.844 39.6157 45.9215 39.5692ZM48.3395 40.3752C48.3395 40.4062 48.3085 40.4992 48.3085 40.5612C48.3085 40.7162 48.3085 40.9952 48.4325 40.9952C48.541 40.9952 48.6185 40.9487 48.665 40.8712V40.7162C48.665 40.6852 48.696 40.6077 48.696 40.5922C48.696 40.4837 48.696 40.4062 48.665 40.3287V40.1737C48.634 40.0962 48.5565 40.0652 48.51 40.0652C48.3395 40.1117 48.3705 40.2202 48.3395 40.3752ZM47.549 36.8877C47.4405 36.7792 47.394 36.7637 47.3165 36.7792C47.239 36.8102 47.1925 36.8102 47.1925 36.9032C47.2235 37.0272 47.27 37.1357 47.3785 37.2132C47.456 37.2907 47.5645 37.3682 47.6885 37.3992C47.8125 37.3682 47.8125 37.1667 47.797 37.0427C47.673 36.9807 47.5955 36.9032 47.549 36.8877ZM54.4154 43.5681C54.3069 43.5991 54.1054 44.1571 54.0589 44.2966C54.0124 44.4206 53.9504 44.5291 54.0279 44.6066C54.0589 44.6841 54.1364 44.7151 54.2139 44.6841C54.2449 44.6841 54.2449 44.6531 54.2604 44.6531C54.3689 44.6221 54.3844 44.5291 54.4929 44.3896C54.5704 44.2346 54.6014 44.0796 54.6169 43.9246C54.5549 43.7231 54.5549 43.5216 54.4154 43.5681ZM48.169 34.6558C48.2465 34.6558 48.355 34.6248 48.4015 34.5473C48.5565 34.4388 48.665 34.4233 48.82 34.3148C49.006 34.1908 49.1765 34.1133 49.3935 34.0513C49.5175 34.0513 49.812 34.0823 49.812 33.9428C49.812 33.8188 49.688 33.6793 49.657 33.6328C49.5795 33.5553 49.502 33.4468 49.471 33.3228C49.471 33.2143 49.5795 33.2143 49.657 33.1988C49.7345 33.1678 49.812 33.1678 49.8895 33.0903C49.9205 33.0903 50.4784 32.9818 50.4784 32.9818C50.6644 32.9508 50.6644 32.6718 50.7884 32.6253C50.9124 32.5788 51.0984 32.6253 51.1449 32.5013C51.1449 32.4238 51.1449 32.3463 51.1139 32.2688C51.0364 32.1913 50.9279 32.1448 50.8039 32.0828C50.6954 32.0828 50.1374 32.6563 50.0754 32.6563C50.0289 32.6563 49.9514 32.5478 49.8429 32.5323C49.6415 32.4548 49.409 32.5013 49.254 32.6563C49.223 32.6873 49.099 32.8113 49.099 32.8888C49.099 32.9663 49.13 33.1213 49.13 33.1988C49.13 33.2763 49.2385 33.3538 49.161 33.5088C49.161 33.6173 48.727 33.8653 48.6185 33.8653H48.231C48.045 33.9893 47.9675 34.2063 47.9985 34.4078C47.983 34.6403 48.0915 34.6558 48.169 34.6558ZM46.464 36.5777C46.774 36.5467 46.8205 36.2213 47.0065 36.1128C47.084 36.0663 47.1925 36.0043 47.27 35.9888C47.5335 35.9578 47.704 36.1128 47.9675 36.0973C48.076 36.0663 48.169 36.0508 48.2775 35.9733C48.386 35.9423 48.4635 35.7873 48.541 35.7098C48.6495 35.5858 48.8045 35.4773 48.975 35.4463C49.0835 35.4463 49.1765 35.4463 49.285 35.4153C49.3625 35.3843 49.44 35.3688 49.5175 35.3068C49.781 35.1983 49.6415 35.0433 49.409 34.9968C49.285 34.9503 49.1765 34.9193 49.0525 34.8883L48.665 34.9193C48.541 34.9658 48.4325 35.0743 48.355 35.1828C48.2 35.3378 47.9675 35.4463 47.766 35.4463H47.4095C47.3785 35.4463 47.2855 35.4773 47.2545 35.4773C47.1305 35.5083 47.022 35.5083 46.9445 35.6013C46.836 35.7098 46.743 35.7873 46.6345 35.8648C46.5105 35.9888 46.402 36.0198 46.402 36.2523C46.3555 36.5157 46.3555 36.5467 46.464 36.5777ZM46.557 34.5008C46.588 34.5318 46.681 34.6093 46.743 34.6248C46.8515 34.6558 47.1615 34.7333 47.177 34.5938C47.208 34.4698 47.146 34.4078 47.053 34.3303C47.022 34.2218 46.929 34.1443 46.898 34.0978C46.7895 34.0668 46.743 33.9893 46.6345 33.9893C46.526 33.9893 46.4795 34.0978 46.402 34.1443C46.3245 34.2993 46.402 34.4233 46.557 34.5008ZM47.859 39.5382C47.9675 39.4297 47.983 39.2592 47.89 39.1197C47.8435 39.0422 47.766 38.9647 47.704 38.8872C47.6265 38.8097 47.58 38.7322 47.549 38.6547C47.518 38.5462 47.4405 38.4222 47.3165 38.4687C47.208 38.5152 47.1305 38.5927 47.084 38.7012C47.053 38.7787 47.0065 38.8252 46.96 38.8872C46.96 38.9957 46.991 39.1197 46.991 39.1507C47.0375 39.2592 47.0995 39.3367 47.146 39.4142C47.2545 39.5382 47.4095 39.6157 47.5645 39.6467C47.673 39.6777 47.7815 39.6157 47.859 39.5382ZM50.0599 37.6627C50.1839 37.5852 50.2924 37.4612 50.3234 37.3062C50.3234 37.2752 50.2924 37.1977 50.1994 37.1202C50.1685 37.0892 50.091 36.9962 50.0445 36.9962H49.9204C49.7965 36.9962 49.688 37.0272 49.688 37.1202V37.3527C49.657 37.4767 49.4555 37.5852 49.378 37.6162H49.1145C49.068 37.6162 48.9905 37.6162 48.9285 37.6472C48.882 37.6472 48.82 37.6472 48.7735 37.6782C48.665 37.7092 48.541 37.8022 48.541 37.9107C48.541 37.9417 48.6495 38.0347 48.6495 38.0347C48.8355 38.0657 49.037 38.0347 49.223 38.0037C49.3315 38.0037 49.409 38.0037 49.4865 37.9727C49.5175 37.9727 49.6105 37.9727 49.6415 37.9417C49.719 37.8177 49.874 37.7092 50.0599 37.6627ZM48.6805 41.6151C48.603 41.5841 48.4945 41.5841 48.417 41.5841C48.3085 41.5841 48.1845 41.5531 48.1535 41.5531C48.0295 41.5531 47.766 41.5841 47.766 41.7391C47.797 41.8631 47.8745 41.9716 47.9985 42.0026C48.107 42.0491 48.231 42.1111 48.355 42.1266H48.82C48.944 42.1266 49.1765 41.9406 49.13 41.8166C48.9595 41.7081 48.8045 41.6306 48.6805 41.6151ZM53.2529 39.1042C53.0669 38.9182 52.8654 38.7632 52.6639 38.6392C52.4779 38.5617 52.2764 38.4842 52.0749 38.4532C51.9664 38.4222 51.8114 38.3447 51.7184 38.4222C51.6099 38.4997 51.6874 38.6547 51.6099 38.7322C51.5789 38.8407 51.4859 38.9182 51.3774 38.8872C51.2689 38.8872 51.1914 38.7787 51.0674 38.8562C50.9434 38.9337 50.8349 39.1662 50.6489 39.2127C50.4164 39.2437 50.3854 39.0267 50.1839 38.9802H49.6105C49.533 39.0267 49.4865 39.1042 49.4865 39.2127C49.4865 39.3212 49.6725 39.3367 49.75 39.3367C49.9515 39.3832 50.1684 39.4917 50.3389 39.6002C50.4164 39.7087 50.4939 39.7862 50.6024 39.8327C50.7884 39.8637 50.9899 39.8637 51.1759 39.8327C51.2844 39.8017 51.2999 39.7242 51.4084 39.6467C51.5324 39.5227 51.6874 39.4142 51.8734 39.3367C51.9819 39.3057 52.0284 39.2282 52.1369 39.2282C52.2454 39.2282 52.4004 39.2592 52.5244 39.2592L52.9429 39.2902C53.0514 39.3367 53.1444 39.3987 53.2529 39.4142C53.3614 39.4142 53.4854 39.4452 53.5629 39.3057C53.6404 39.2592 53.3924 39.2127 53.2529 39.1042ZM46.743 40.0652C46.6345 40.0652 46.433 40.2977 46.433 40.3752C46.433 40.4527 46.5415 40.4992 46.557 40.5302C46.6035 40.5767 46.6655 40.6387 46.681 40.7162C46.7895 40.8247 46.991 41.1347 47.115 40.9022C47.146 40.7937 47.146 40.7007 47.146 40.5922C47.146 40.4682 47.115 40.3287 47.0375 40.2357C47.0065 40.0807 46.867 40.0342 46.743 40.0652ZM50.3854 40.6852C50.3854 40.5767 50.2769 40.5767 50.2614 40.5767C50.1064 40.5767 49.9979 40.7007 49.9979 40.8402C49.9979 40.8712 50.0289 40.9642 50.0289 40.9952C50.0289 41.1812 49.874 41.2276 49.874 41.3516C49.874 41.4756 49.9824 41.4756 50.0289 41.5066H50.2924C50.4009 41.4756 50.4164 41.3206 50.4164 41.2431C50.4164 41.1346 50.3079 40.9332 50.3854 40.8247C50.3389 40.7782 50.3389 40.7162 50.3389 40.6232C50.3699 40.6852 50.3854 40.6852 50.3854 40.6852ZM46.433 41.4756C46.3865 41.4756 46.3245 41.4756 46.309 41.4446C46.185 41.3361 46.185 41.2121 46.154 41.0262C46.1075 40.9177 46.0455 40.8247 45.968 40.7162C45.937 40.6077 45.844 40.5922 45.7355 40.4837C45.658 40.4372 45.5495 40.3752 45.472 40.3597C45.3635 40.3597 45.286 40.4837 45.286 40.6232C45.286 40.7627 45.41 40.7782 45.5185 40.7782C45.627 40.8092 45.72 40.8557 45.782 40.9642C45.8905 41.1502 45.813 41.5066 45.8905 41.6306C45.968 41.7546 46.0765 41.7546 46.247 41.7856C46.3245 41.8166 46.433 41.8166 46.5105 41.8166C46.6965 41.8166 46.8205 41.7856 46.774 41.5841C46.6965 41.5531 46.557 41.5066 46.433 41.4756Z" fill="white"/>
</svg>
